<svg width="15" height="17" viewBox="0 0 15 17" fill="none" xmlns="http://www.w3.org/2000/svg">
<path d="M7.41303 8.68538C7.12594 8.30672 6.89655 7.88739 6.73241 7.44144C5.61285 8.26326 4.13563 7.94695 3.21742 6.86987C0.389861 7.97106 -0.916648 11.7151 0.710489 14.3623C0.862697 14.6319 1.05032 14.96 1.40192 14.9482H4.22825C3.9605 13.6975 4.1308 12.3926 4.71056 11.2523C5.29031 10.1119 6.24452 9.20566 7.41299 8.68518L7.41303 8.68538Z" fill="#634AF9"/>
<path d="M2.41296 4.64015C2.78141 6.62858 4.83218 8.51845 6.63375 7.15357C6.61488 7.0931 6.59461 7.0337 6.5776 6.97183H6.57775C6.37002 6.93347 6.18239 6.82349 6.04733 6.66107C5.91229 6.49881 5.83851 6.29417 5.83851 6.08301V5.29956C5.8379 5.12059 5.89064 4.94565 5.99026 4.79702C6.08987 4.64837 6.23171 4.53297 6.39752 4.46569C6.42459 3.91349 6.62367 3.38354 6.96723 2.95014C7.31062 2.51674 7.78101 2.20181 8.3125 2.04928C8.32967 0.982576 7.81986 0.204231 6.9637 0.760627C6.20191 -0.393744 4.45847 -0.0392206 3.43588 0.546705C3.06511 0.750264 2.76117 1.05653 2.56056 1.42868C2.35979 1.801 2.271 2.22326 2.30472 2.64478C2.1505 2.65283 2.00541 2.72011 1.89947 2.83257C1.79367 2.94502 1.7352 3.09398 1.73628 3.24835V4.03367C1.73628 4.20706 1.81007 4.37242 1.93922 4.48826C2.06838 4.60396 2.24085 4.65918 2.41318 4.64015L2.41296 4.64015Z" fill="#634AF9"/>
<path d="M11.8073 8.94755C11.7876 8.93889 11.7669 8.93208 11.7471 8.92358C10.6284 10.3298 8.7565 10.2576 7.60985 8.92188C4.78506 10.0262 3.47934 13.7663 5.10632 16.4135C5.25853 16.6831 5.44615 17.0113 5.79775 16.9996H13.5392C13.7357 16.9971 13.9185 16.8986 14.0285 16.7359C15.9507 13.9903 14.6761 10.2219 11.8074 8.94765L11.8073 8.94755Z" fill="#634AF9"/>
<path d="M6.69992 4.69606C6.54571 4.70426 6.40061 4.77138 6.29467 4.88384C6.18887 4.99629 6.1304 5.14525 6.13148 5.29962V6.08494C6.13164 6.25834 6.20542 6.42354 6.33458 6.53941C6.46374 6.65511 6.63605 6.71049 6.80838 6.69146C7.61951 10.1463 11.2521 11.1391 12.5367 6.69146C12.7076 6.7077 12.8774 6.65109 13.0046 6.53569C13.1317 6.4203 13.2044 6.25665 13.2047 6.08495V5.29963C13.206 5.14742 13.1489 5.00063 13.0456 4.88896C12.9421 4.77743 12.7999 4.70937 12.648 4.69901C12.9 3.35825 12.3695 2.15604 11.3587 2.81207C10.596 1.65845 8.85479 2.01297 7.83077 2.59814C7.46016 2.80155 7.15622 3.10781 6.95545 3.48012C6.75483 3.85228 6.66604 4.27454 6.69976 4.69606L6.69992 4.69606Z" fill="#634AF9"/>
</svg>
