<svg width="31" height="30" viewBox="0 0 31 30" fill="none" xmlns="http://www.w3.org/2000/svg">
<path d="M0.411865 15C0.411865 15.9946 0.806954 16.9484 1.51022 17.6516C2.21348 18.3549 3.1673 18.75 4.16187 18.75C5.15643 18.75 6.11025 18.3549 6.81351 17.6516C7.51678 16.9484 7.91187 15.9946 7.91187 15C7.91187 14.0054 7.51678 13.0516 6.81351 12.3484C6.11025 11.6451 5.15643 11.25 4.16187 11.25C3.1673 11.25 2.21348 11.6451 1.51022 12.3484C0.806954 13.0516 0.411865 14.0054 0.411865 15ZM0.411865 3.75C0.411865 4.74456 0.806954 5.69839 1.51022 6.40165C2.21348 7.10491 3.1673 7.5 4.16187 7.5C5.15643 7.5 6.11025 7.10491 6.81351 6.40165C7.51678 5.69839 7.91187 4.74456 7.91187 3.75C7.91187 2.75544 7.51678 1.80161 6.81351 1.09835C6.11025 0.395088 5.15643 0 4.16187 0C3.1673 0 2.21348 0.395088 1.51022 1.09835C0.806954 1.80161 0.411865 2.75544 0.411865 3.75ZM0.411865 26.25C0.411865 27.2446 0.806954 28.1984 1.51022 28.9016C2.21348 29.6049 3.1673 30 4.16187 30C5.15643 30 6.11025 29.6049 6.81351 28.9016C7.51678 28.1984 7.91187 27.2446 7.91187 26.25C7.91187 25.2554 7.51678 24.3016 6.81351 23.5984C6.11025 22.8951 5.15643 22.5 4.16187 22.5C3.1673 22.5 2.21348 22.8951 1.51022 23.5984C0.806954 24.3016 0.411865 25.2554 0.411865 26.25Z" fill="#634AF9"/>
<path d="M11.6619 15C11.6619 15.9946 12.057 16.9484 12.7602 17.6516C13.4635 18.3549 14.4173 18.75 15.4119 18.75C16.4064 18.75 17.3603 18.3549 18.0635 17.6516C18.7668 16.9484 19.1619 15.9946 19.1619 15C19.1619 14.0054 18.7668 13.0516 18.0635 12.3484C17.3603 11.6451 16.4064 11.25 15.4119 11.25C14.4173 11.25 13.4635 11.6451 12.7602 12.3484C12.057 13.0516 11.6619 14.0054 11.6619 15ZM11.6619 3.75C11.6619 4.74456 12.057 5.69839 12.7602 6.40165C13.4635 7.10491 14.4173 7.5 15.4119 7.5C16.4064 7.5 17.3603 7.10491 18.0635 6.40165C18.7668 5.69839 19.1619 4.74456 19.1619 3.75C19.1619 2.75544 18.7668 1.80161 18.0635 1.09835C17.3603 0.395088 16.4064 0 15.4119 0C14.4173 0 13.4635 0.395088 12.7602 1.09835C12.057 1.80161 11.6619 2.75544 11.6619 3.75ZM11.6619 26.25C11.6619 27.2446 12.057 28.1984 12.7602 28.9016C13.4635 29.6049 14.4173 30 15.4119 30C16.4064 30 17.3603 29.6049 18.0635 28.9016C18.7668 28.1984 19.1619 27.2446 19.1619 26.25C19.1619 25.2554 18.7668 24.3016 18.0635 23.5984C17.3603 22.8951 16.4064 22.5 15.4119 22.5C14.4173 22.5 13.4635 22.8951 12.7602 23.5984C12.057 24.3016 11.6619 25.2554 11.6619 26.25Z" fill="#634AF9"/>
<path d="M22.9119 15C22.9119 15.9946 23.307 16.9484 24.0102 17.6516C24.7135 18.3549 25.6673 18.75 26.6619 18.75C27.6564 18.75 28.6103 18.3549 29.3135 17.6516C30.0168 16.9484 30.4119 15.9946 30.4119 15C30.4119 14.0054 30.0168 13.0516 29.3135 12.3484C28.6103 11.6451 27.6564 11.25 26.6619 11.25C25.6673 11.25 24.7135 11.6451 24.0102 12.3484C23.307 13.0516 22.9119 14.0054 22.9119 15ZM22.9119 3.75C22.9119 4.74456 23.307 5.69839 24.0102 6.40165C24.7135 7.10491 25.6673 7.5 26.6619 7.5C27.6564 7.5 28.6103 7.10491 29.3135 6.40165C30.0168 5.69839 30.4119 4.74456 30.4119 3.75C30.4119 2.75544 30.0168 1.80161 29.3135 1.09835C28.6103 0.395088 27.6564 0 26.6619 0C25.6673 0 24.7135 0.395088 24.0102 1.09835C23.307 1.80161 22.9119 2.75544 22.9119 3.75ZM22.9119 26.25C22.9119 27.2446 23.307 28.1984 24.0102 28.9016C24.7135 29.6049 25.6673 30 26.6619 30C27.6564 30 28.6103 29.6049 29.3135 28.9016C30.0168 28.1984 30.4119 27.2446 30.4119 26.25C30.4119 25.2554 30.0168 24.3016 29.3135 23.5984C28.6103 22.8951 27.6564 22.5 26.6619 22.5C25.6673 22.5 24.7135 22.8951 24.0102 23.5984C23.307 24.3016 22.9119 25.2554 22.9119 26.25Z" fill="#634AF9"/>
</svg>
