<svg width="14" height="15" viewBox="0 0 14 15" fill="none" xmlns="http://www.w3.org/2000/svg">
<path fill-rule="evenodd" clip-rule="evenodd" d="M6.22227 12.9443C6.22227 13.3565 6.38641 13.7525 6.67801 14.0441C6.96963 14.3357 7.36563 14.4998 7.77781 14.4998H12.4443C12.8565 14.4998 13.2525 14.3357 13.5441 14.0441C13.8358 13.7525 13.9999 13.3565 13.9999 12.9443V9.83318C13.9999 9.421 13.8357 9.02498 13.5441 8.73338C13.2525 8.44178 12.8565 8.27765 12.4443 8.27765H7.77781C7.36563 8.27765 6.96961 8.44178 6.67801 8.73338C6.38639 9.025 6.22227 9.421 6.22227 9.83318V12.9443ZM3.11112 8.2778H1.55554C1.1432 8.2778 0.74734 8.44194 0.455736 8.73354C0.163962 9.02516 0 9.42116 0 9.83333V12.9445C0 13.3566 0.163982 13.7527 0.455736 14.0443C0.747356 14.3359 1.1432 14.5 1.55554 14.5H3.11112C3.5233 14.5 3.91916 14.3359 4.21092 14.0443C4.50254 13.7526 4.66665 13.3566 4.66665 12.9445V9.83333C4.66665 9.42116 4.50252 9.02514 4.21092 8.73354C3.91914 8.44192 3.5233 8.2778 3.11112 8.2778ZM14 2.05553C14 1.64319 13.8358 1.24733 13.5442 0.955732C13.2526 0.66396 12.8566 0.5 12.4444 0.5H1.55558C1.14324 0.5 0.747379 0.66398 0.455775 0.955732C0.164001 1.24735 3.96957e-05 1.64319 3.96957e-05 2.05553V5.16667C3.96957e-05 5.57884 0.164021 5.9747 0.455775 6.26646C0.747395 6.55808 1.14324 6.7222 1.55558 6.7222H12.4444C13.3039 6.7222 14 6.0261 14 5.16663L14 2.05553Z" fill="#634AF9"/>
</svg>
