<svg width="31" height="30" viewBox="0 0 31 30" fill="none" xmlns="http://www.w3.org/2000/svg">
<path d="M5.02197 0.347893C5.34166 0.0658176 5.69895 0.00940254 6.07505 0.00940254C11.6978 0.00940254 17.3017 0.00940254 22.9244 0.00940254C23.7518 0.00940254 24.5604 -0.0282076 25.3878 0.0470126C28.3214 0.310283 30.4088 2.58569 30.4276 5.51928C30.4276 6.45953 30.4276 7.41859 30.4276 8.35884C30.4276 15.0346 30.4276 21.6916 30.4276 28.3674C30.4276 28.6119 30.4088 28.8563 30.3336 29.082C30.0327 30.0034 28.9232 30.3043 28.1522 29.6461C27.1743 28.8187 26.2152 27.9913 25.2374 27.1451C24.9365 26.8818 24.6168 26.6185 24.2971 26.3365C24.2031 26.4117 24.1279 26.4681 24.0527 26.5245C22.868 27.54 21.6832 28.5554 20.4985 29.5521C19.8403 30.1163 19.1822 30.1163 18.524 29.5521C17.3205 28.5178 16.1357 27.5024 14.9322 26.4681C14.8758 26.4117 14.8194 26.3741 14.7442 26.3176C14.4245 26.5997 14.086 26.863 13.7663 27.1451C12.8261 27.9537 11.8858 28.7623 10.9268 29.5709C10.1934 30.1915 9.19669 30.0598 8.80178 29.27C8.67015 29.0068 8.61373 28.6495 8.61373 28.3486C8.59493 24.1551 8.61373 19.9615 8.61373 15.7492C8.61373 12.3267 8.61373 8.90418 8.61373 5.48167C8.61373 3.33789 7.65468 1.75827 5.84939 0.667579C5.58612 0.592359 5.30405 0.479528 5.02197 0.347893ZM19.5207 19.1153C20.8558 19.1153 22.191 19.1153 23.5073 19.1153C24.3535 19.1153 24.9553 18.5512 24.9553 17.7426C24.9553 16.9527 24.3535 16.3698 23.5073 16.3698C20.837 16.3698 18.1855 16.3698 15.5152 16.3698C15.2707 16.3698 15.0263 16.4262 14.8006 16.5202C14.2176 16.7835 13.9356 17.4229 14.086 18.0434C14.2176 18.6452 14.763 19.0777 15.4212 19.0965C16.7751 19.1153 18.1479 19.1153 19.5207 19.1153ZM19.5019 10.9351C18.1855 10.9351 16.8503 10.9351 15.534 10.9351C14.6502 10.9351 14.0484 11.4993 14.0484 12.3079C14.0484 13.0977 14.6502 13.6619 15.4964 13.6807C18.1667 13.6807 20.8182 13.6807 23.4885 13.6807C24.3535 13.6807 24.9365 13.0977 24.9365 12.3079C24.9365 11.5181 24.3347 10.9539 23.4885 10.9539C22.1722 10.9351 20.837 10.9351 19.5019 10.9351ZM19.5207 8.18959C20.8934 8.18959 22.2662 8.2084 23.639 8.18959C24.41 8.18959 24.9553 7.58783 24.9553 6.83563C24.9553 6.08343 24.3912 5.50047 23.6202 5.48167C23.3193 5.46286 22.9996 5.48167 22.6987 5.48167C20.3105 5.48167 17.9222 5.48167 15.534 5.48167C15.1015 5.48167 14.7254 5.57569 14.4245 5.89538C14.0296 6.30909 13.9356 6.81683 14.1424 7.34337C14.3493 7.88871 14.7818 8.18959 15.3835 8.18959C16.7751 8.2084 18.1479 8.18959 19.5207 8.18959Z" fill="#634AF9"/>
<path d="M5.86826 16.3698C5.73663 16.3698 5.66141 16.3886 5.56738 16.3886C4.32625 16.3886 3.10392 16.3886 1.86279 16.3886C0.960147 16.3886 0.395996 15.8245 0.395996 14.9406C0.395996 11.6685 0.395996 8.39647 0.395996 5.12439C0.395996 3.78924 1.50549 2.60452 2.84065 2.49169C4.28864 2.37886 5.56738 3.30031 5.81185 4.67307C5.86826 5.01156 5.86826 5.36886 5.86826 5.72616C5.86826 9.12987 5.86826 12.5524 5.86826 15.9561C5.86826 16.0689 5.86826 16.2006 5.86826 16.3698Z" fill="#634AF9"/>
</svg>
