<svg width="15" height="17" viewBox="0 0 15 17" fill="none" xmlns="http://www.w3.org/2000/svg">
<path d="M1.8057 2.43404C1.8057 1.86826 1.8057 1.33195 1.8057 0.795631C1.8057 0.412549 1.85314 0.365401 2.2446 0.365401C2.93261 0.365401 3.61469 0.365401 4.3027 0.365401C4.64077 0.365401 4.70008 0.424336 4.70008 0.772057C4.70008 1.31426 4.70008 1.85647 4.70008 2.41636C4.97884 2.41636 5.23388 2.41636 5.51264 2.41636C5.51857 2.32796 5.52451 2.24545 5.52451 2.16883C5.52451 1.56179 5.52451 0.960651 5.52451 0.353614C5.52451 0.0648292 5.58975 0 5.87444 0C6.59804 0 7.32163 0 8.04523 0C8.34179 0 8.40703 0.0648292 8.40703 0.371294C8.40703 0.966544 8.40703 1.56769 8.40703 2.16294C8.40703 2.24545 8.40703 2.32796 8.40703 2.42225C8.73324 2.42225 9.02979 2.42225 9.35601 2.42225C9.36194 2.33974 9.36787 2.25723 9.36787 2.17472C9.36787 1.67967 9.36787 1.17871 9.36787 0.683653C9.36787 0.412549 9.40939 0.371294 9.67036 0.371294C10.5422 0.371294 11.4141 0.371294 12.28 0.371294C12.5469 0.371294 12.5944 0.418443 12.5944 0.67776C12.5944 1.24944 12.5944 1.827 12.5944 2.42815C12.6893 2.43404 12.7723 2.43993 12.8554 2.43993C13.235 2.43993 13.6086 2.43404 13.9882 2.43993C14.2373 2.44583 14.3678 2.58138 14.3915 2.82302C14.3975 2.89374 14.3915 2.95857 14.3915 3.02929C14.3915 7.55555 14.3915 12.0759 14.3915 16.6022C14.3915 16.9735 14.3737 16.9911 14.0001 16.9911C13.5019 16.9911 13.5019 16.9911 13.5019 16.502C13.5019 16.3664 13.5019 16.2309 13.5019 16.0776C9.29076 16.0776 5.1034 16.0776 0.886372 16.0776C0.886372 16.2898 0.880441 16.4961 0.886372 16.7024C0.892304 16.9027 0.82113 16.997 0.60761 16.997C-0.00329505 17.0088 0.00263605 17.0147 0.00263605 16.4077C0.00263605 11.9698 0.00263605 7.52608 0.00263605 3.08823C0.00263605 3.00572 -0.00329506 2.91731 0.00263605 2.8348C0.0204294 2.57549 0.156845 2.44583 0.417814 2.43993C0.87451 2.42815 1.31934 2.43404 1.8057 2.43404ZM9.70594 10.8913C9.70594 10.1251 9.70594 9.38255 9.70594 8.63996C9.70594 8.36886 9.78898 8.28046 10.0677 8.28046C10.7913 8.28046 11.5149 8.28046 12.2385 8.28046C12.5232 8.28046 12.6003 8.36297 12.6003 8.65764C12.6003 9.31772 12.6003 9.97191 12.6003 10.632C12.6003 10.7145 12.6003 10.797 12.6003 10.8854C12.9147 10.8854 13.1994 10.8854 13.49 10.8854C13.49 9.77153 13.49 8.66943 13.49 7.56733C9.28483 7.56733 5.09746 7.56733 0.910097 7.56733C0.910097 8.68711 0.910097 9.78331 0.910097 10.8795C1.21258 10.8795 1.50321 10.8795 1.79976 10.8795C1.79976 10.3078 1.79976 9.75385 1.79976 9.20574C1.79976 8.86981 1.84128 8.82856 2.19122 8.82856C2.72502 8.82856 3.25289 8.82856 3.78669 8.82856C4.17814 8.82856 4.57553 8.82856 4.96698 8.82856C5.26947 8.82856 5.31099 8.86981 5.31099 9.17628C5.31099 9.54168 5.31099 9.91297 5.31099 10.2784C5.31099 10.4729 5.31099 10.6732 5.31099 10.8972C5.47706 10.8972 5.61347 10.8854 5.74989 10.8972C5.93968 10.9149 6.00493 10.8559 5.99899 10.6556C5.98713 9.97191 5.99306 9.29415 5.99306 8.61049C5.99306 8.35707 6.0761 8.26867 6.31927 8.26867C7.0666 8.26278 7.81392 8.26278 8.56124 8.26867C8.79255 8.26867 8.87559 8.35707 8.87559 8.59281C8.88152 9.07609 8.87559 9.55936 8.87559 10.0426C8.87559 10.3137 8.87559 10.5907 8.87559 10.8795C9.16028 10.8913 9.42125 10.8913 9.70594 10.8913ZM1.8057 15.1641C1.8057 15.0522 1.8057 14.9696 1.8057 14.8871C1.8057 14.1681 1.8057 13.4491 1.8057 12.7301C1.8057 12.459 1.88873 12.3765 2.16156 12.3706C2.88516 12.3706 3.60875 12.3706 4.33235 12.3706C4.61704 12.3706 4.69415 12.4531 4.70008 12.7419C4.70008 13.4609 4.70008 14.1799 4.70008 14.8989C4.70008 14.9814 4.70008 15.0639 4.70008 15.1582C4.98477 15.1582 5.23981 15.1582 5.52451 15.1582C5.52451 15.0581 5.52451 14.9638 5.52451 14.8754C5.52451 14.1622 5.52451 13.4491 5.52451 12.7419C5.52451 12.4354 5.59568 12.3706 5.91003 12.3706C6.62176 12.3706 7.32756 12.3706 8.0393 12.3706C8.34179 12.3706 8.41296 12.4413 8.41296 12.7537C8.41296 13.4727 8.41296 14.1917 8.41296 14.9107C8.41296 14.9932 8.41296 15.0757 8.41296 15.1524C8.65614 15.1524 8.86966 15.1524 9.09504 15.1524C9.09504 14.4982 9.09504 13.8617 9.09504 13.231C9.09504 12.9717 9.14842 12.9187 9.40346 12.9187C10.3584 12.9187 11.3133 12.9187 12.2682 12.9187C12.5469 12.9187 12.6003 12.9717 12.6003 13.2605C12.6003 13.8145 12.6003 14.3626 12.6003 14.9166C12.6003 14.9991 12.6063 15.0757 12.6122 15.1582C12.9206 15.1582 13.1994 15.1582 13.4959 15.1582C13.4959 14.0326 13.4959 12.9187 13.4959 11.793C9.2967 11.793 5.10933 11.793 0.910097 11.793C0.910097 12.9246 0.910097 14.0326 0.910097 15.1582C1.21258 15.1641 1.49135 15.1641 1.8057 15.1641ZM13.5019 3.31808C9.29076 3.31808 5.1034 3.31808 0.910097 3.31808C0.910097 4.43785 0.910097 5.54584 0.910097 6.65973C1.21258 6.65973 1.49728 6.65973 1.8057 6.65973C1.8057 6.55954 1.8057 6.47703 1.8057 6.39452C1.8057 5.6755 1.8057 4.95649 1.8057 4.23747C1.8057 3.95458 1.88873 3.87207 2.17936 3.87207C2.89109 3.87207 3.59689 3.87207 4.30863 3.87207C4.62891 3.87207 4.70601 3.94869 4.70601 4.26105C4.70601 4.98006 4.70601 5.69907 4.70601 6.41809C4.70601 6.5006 4.70601 6.58311 4.70601 6.65973C4.99664 6.65973 5.25167 6.65973 5.53044 6.65973C5.53044 6.54775 5.53044 6.45934 5.53044 6.37094C5.53044 5.66371 5.53044 4.96238 5.53044 4.25515C5.53044 3.9369 5.60161 3.86618 5.92782 3.86618C6.62176 3.86618 7.3157 3.86618 8.00964 3.86618C8.35958 3.86618 8.41889 3.92511 8.41889 4.28462C8.41889 4.89755 8.41889 5.51048 8.41889 6.12341C8.41889 6.71277 8.41889 6.71277 9.01793 6.67151C9.04166 6.67151 9.05945 6.65383 9.1069 6.63615C9.1069 6.55954 9.1069 6.47703 9.1069 6.39452C9.1069 5.82873 9.11283 5.26295 9.1069 4.69717C9.1069 4.50268 9.18994 4.42017 9.38566 4.42017C10.3702 4.42017 11.3607 4.42017 12.3453 4.42017C12.541 4.42017 12.6181 4.51447 12.6181 4.70306C12.6122 5.16865 12.6181 5.63425 12.6181 6.10573C12.6181 6.28843 12.6181 6.47113 12.6181 6.65973C12.9325 6.65973 13.2172 6.65973 13.5137 6.65973C13.5019 5.54584 13.5019 4.44375 13.5019 3.31808Z" fill="#634AF9"/>
</svg>
