<svg width="12" height="17" viewBox="0 0 12 17" fill="none" xmlns="http://www.w3.org/2000/svg">
<path d="M2 0.5C0.896875 0.5 0 1.39687 0 2.5V14.5C0 15.6031 0.896875 16.5 2 16.5H10C11.1031 16.5 12 15.6031 12 14.5V5.5H8C7.44688 5.5 7 5.05312 7 4.5V0.5H2ZM8 0.5V4.5H12L8 0.5ZM2 3C2 2.725 2.225 2.5 2.5 2.5H4.5C4.775 2.5 5 2.725 5 3C5 3.275 4.775 3.5 4.5 3.5H2.5C2.225 3.5 2 3.275 2 3ZM2 5C2 4.725 2.225 4.5 2.5 4.5H4.5C4.775 4.5 5 4.725 5 5C5 5.275 4.775 5.5 4.5 5.5H2.5C2.225 5.5 2 5.275 2 5ZM6 7.25C6.275 7.25 6.5 7.475 6.5 7.75V8.29063C6.76562 8.32813 7.02187 8.3875 7.25312 8.45C7.51875 8.52188 7.67813 8.79375 7.60625 9.0625C7.53438 9.33125 7.2625 9.4875 6.99375 9.41562C6.64688 9.32187 6.30625 9.25313 5.99062 9.25C5.72813 9.24687 5.44688 9.30625 5.25313 9.42188C5.075 9.52812 5 9.65 5 9.82187C5 9.9375 5.04063 10.025 5.22813 10.1375C5.44375 10.2656 5.74687 10.3594 6.14062 10.4781L6.15625 10.4812C6.50938 10.5875 6.94688 10.7188 7.29063 10.9375C7.66875 11.175 7.99062 11.5531 8 12.1313C8.00937 12.7344 7.7 13.1719 7.28437 13.4312C7.04375 13.5812 6.77187 13.6687 6.5 13.7156V14.25C6.5 14.525 6.275 14.75 6 14.75C5.725 14.75 5.5 14.525 5.5 14.25V13.6938C5.15 13.6281 4.82188 13.5156 4.53438 13.4156C4.46875 13.3937 4.40312 13.3719 4.34062 13.35C4.07812 13.2625 3.9375 12.9781 4.025 12.7188C4.1125 12.4594 4.39687 12.3156 4.65625 12.4031C4.73438 12.4281 4.80625 12.4531 4.87813 12.4781C5.30313 12.6219 5.64687 12.7406 6.0125 12.75C6.29688 12.7594 6.57188 12.6969 6.75312 12.5844C6.9125 12.4844 7 12.3563 6.99688 12.1469C6.99375 12.0031 6.94062 11.9031 6.75625 11.7844C6.54375 11.65 6.24062 11.5531 5.85 11.4344L5.8 11.4187C5.45625 11.3156 5.04063 11.1906 4.7125 10.9906C4.3375 10.7656 4.00625 10.4 4.00313 9.825C4 9.21875 4.34062 8.8 4.74687 8.55937C4.98125 8.42188 5.24062 8.33437 5.5 8.2875V7.75C5.5 7.475 5.725 7.25 6 7.25Z" fill="#634AF9"/>
</svg>
