<svg width="16" height="17" viewBox="0 0 16 17" fill="none" xmlns="http://www.w3.org/2000/svg">
<path d="M0 8.5C0 9.03043 0.210714 9.53914 0.585787 9.91421C0.96086 10.2893 1.46957 10.5 2 10.5C2.53043 10.5 3.03914 10.2893 3.41421 9.91421C3.78929 9.53914 4 9.03043 4 8.5C4 7.96957 3.78929 7.46086 3.41421 7.08579C3.03914 6.71071 2.53043 6.5 2 6.5C1.46957 6.5 0.96086 6.71071 0.585787 7.08579C0.210714 7.46086 0 7.96957 0 8.5ZM0 2.5C0 3.03043 0.210714 3.53914 0.585787 3.91421C0.96086 4.28929 1.46957 4.5 2 4.5C2.53043 4.5 3.03914 4.28929 3.41421 3.91421C3.78929 3.53914 4 3.03043 4 2.5C4 1.96957 3.78929 1.46086 3.41421 1.08579C3.03914 0.710714 2.53043 0.5 2 0.5C1.46957 0.5 0.96086 0.710714 0.585787 1.08579C0.210714 1.46086 0 1.96957 0 2.5ZM0 14.5C0 15.0304 0.210714 15.5391 0.585787 15.9142C0.96086 16.2893 1.46957 16.5 2 16.5C2.53043 16.5 3.03914 16.2893 3.41421 15.9142C3.78929 15.5391 4 15.0304 4 14.5C4 13.9696 3.78929 13.4609 3.41421 13.0858C3.03914 12.7107 2.53043 12.5 2 12.5C1.46957 12.5 0.96086 12.7107 0.585787 13.0858C0.210714 13.4609 0 13.9696 0 14.5Z" fill="#634AF9"/>
<path d="M6 8.5C6 9.03043 6.21071 9.53914 6.58579 9.91421C6.96086 10.2893 7.46957 10.5 8 10.5C8.53043 10.5 9.03914 10.2893 9.41421 9.91421C9.78929 9.53914 10 9.03043 10 8.5C10 7.96957 9.78929 7.46086 9.41421 7.08579C9.03914 6.71071 8.53043 6.5 8 6.5C7.46957 6.5 6.96086 6.71071 6.58579 7.08579C6.21071 7.46086 6 7.96957 6 8.5ZM6 2.5C6 3.03043 6.21071 3.53914 6.58579 3.91421C6.96086 4.28929 7.46957 4.5 8 4.5C8.53043 4.5 9.03914 4.28929 9.41421 3.91421C9.78929 3.53914 10 3.03043 10 2.5C10 1.96957 9.78929 1.46086 9.41421 1.08579C9.03914 0.710714 8.53043 0.5 8 0.5C7.46957 0.5 6.96086 0.710714 6.58579 1.08579C6.21071 1.46086 6 1.96957 6 2.5ZM6 14.5C6 15.0304 6.21071 15.5391 6.58579 15.9142C6.96086 16.2893 7.46957 16.5 8 16.5C8.53043 16.5 9.03914 16.2893 9.41421 15.9142C9.78929 15.5391 10 15.0304 10 14.5C10 13.9696 9.78929 13.4609 9.41421 13.0858C9.03914 12.7107 8.53043 12.5 8 12.5C7.46957 12.5 6.96086 12.7107 6.58579 13.0858C6.21071 13.4609 6 13.9696 6 14.5Z" fill="#634AF9"/>
<path d="M12 8.5C12 9.03043 12.2107 9.53914 12.5858 9.91421C12.9609 10.2893 13.4696 10.5 14 10.5C14.5304 10.5 15.0391 10.2893 15.4142 9.91421C15.7893 9.53914 16 9.03043 16 8.5C16 7.96957 15.7893 7.46086 15.4142 7.08579C15.0391 6.71071 14.5304 6.5 14 6.5C13.4696 6.5 12.9609 6.71071 12.5858 7.08579C12.2107 7.46086 12 7.96957 12 8.5ZM12 2.5C12 3.03043 12.2107 3.53914 12.5858 3.91421C12.9609 4.28929 13.4696 4.5 14 4.5C14.5304 4.5 15.0391 4.28929 15.4142 3.91421C15.7893 3.53914 16 3.03043 16 2.5C16 1.96957 15.7893 1.46086 15.4142 1.08579C15.0391 0.710714 14.5304 0.5 14 0.5C13.4696 0.5 12.9609 0.710714 12.5858 1.08579C12.2107 1.46086 12 1.96957 12 2.5ZM12 14.5C12 15.0304 12.2107 15.5391 12.5858 15.9142C12.9609 16.2893 13.4696 16.5 14 16.5C14.5304 16.5 15.0391 16.2893 15.4142 15.9142C15.7893 15.5391 16 15.0304 16 14.5C16 13.9696 15.7893 13.4609 15.4142 13.0858C15.0391 12.7107 14.5304 12.5 14 12.5C13.4696 12.5 12.9609 12.7107 12.5858 13.0858C12.2107 13.4609 12 13.9696 12 14.5Z" fill="#634AF9"/>
</svg>
