<svg width="20" height="19" viewBox="0 0 20 19" fill="none" xmlns="http://www.w3.org/2000/svg">
<path d="M1.95 18.5V5.6L0 1.35L1.8 0.5L4.15 5.55H15.75L18.1 0.5L19.9 1.35L17.95 5.6V18.5H1.95ZM7.95 11.5H11.95C12.2333 11.5 12.471 11.404 12.663 11.212C12.855 11.02 12.9507 10.7827 12.95 10.5C12.95 10.2167 12.854 9.97933 12.662 9.788C12.47 9.59667 12.2327 9.50067 11.95 9.5H7.95C7.66667 9.5 7.42933 9.596 7.238 9.788C7.04667 9.98 6.95067 10.2173 6.95 10.5C6.95 10.7833 7.046 11.021 7.238 11.213C7.43 11.405 7.66733 11.5007 7.95 11.5Z" fill="#634AF9"/>
</svg>
