<svg width="16" height="17" viewBox="0 0 16 17" fill="none" xmlns="http://www.w3.org/2000/svg">
<path d="M13.0446 6.75888C12.2539 6.5139 11.5747 6.30603 10.8954 6.09445C11.0179 5.64903 11.274 5.61562 11.6675 5.75296C12.4136 6.01279 13.1745 6.23179 13.9317 6.44337C14.1656 6.51018 14.3066 6.61783 14.4068 6.84425C14.6815 7.47527 14.9673 8.09887 15.2717 8.71504C15.4387 9.05282 15.3534 9.21614 15.0044 9.33492C13.1893 9.9511 11.3779 10.5747 9.57025 11.2057C9.26216 11.3134 9.09142 11.2317 8.94294 10.9422C8.5866 10.2369 8.19686 9.55021 7.79968 8.81526C7.41736 9.42772 7.04246 10.0031 6.69726 10.5933C6.53022 10.8791 6.35205 10.9236 6.04768 10.8234C4.25484 10.2369 2.45829 9.66157 0.658026 9.09736C0.29055 8.9823 0.194041 8.81155 0.379635 8.45521C0.695145 7.86131 0.984671 7.25256 1.26306 6.6401C1.37813 6.38398 1.5563 6.2652 1.81984 6.20581C2.54737 6.03506 3.2749 5.86803 3.99129 5.66016C4.35877 5.55252 4.64087 5.51911 4.71511 6.0165C4.08038 6.19096 3.42338 6.36913 2.66615 6.57329C4.37362 7.05583 5.9623 7.50868 7.55099 7.95782C7.71802 8.00607 7.87392 8.03206 8.06323 7.98751C9.68532 7.57549 11.3037 7.18575 13.0446 6.75888Z" fill="#634AF9"/>
<path d="M7.57699 10.2445C7.57699 12.5533 7.57699 14.7507 7.57699 17.0001C6.68985 16.718 5.83241 16.4396 4.97125 16.1649C3.91337 15.8272 2.85548 15.4894 1.79017 15.1664C1.47466 15.0699 1.35217 14.9029 1.35588 14.5651C1.37073 13.1286 1.37444 11.6884 1.35217 10.2519C1.34474 9.8733 1.47466 9.89928 1.74563 9.99208C3.10418 10.4449 4.47015 10.8829 5.83241 11.3284C6.56365 11.5659 6.80492 11.4805 7.21323 10.8273C7.31345 10.6676 7.41367 10.5043 7.57699 10.2445Z" fill="#634AF9"/>
<path d="M8.13373 16.9702C8.13373 14.8248 8.13373 12.7201 8.13373 10.5116C8.30447 10.8085 8.43068 11.0275 8.55688 11.2502C8.87982 11.8219 9.18048 11.9406 9.78923 11.7328C11.1589 11.2614 12.5249 10.7825 13.8909 10.3111C14.0245 10.2629 14.1618 10.2183 14.3437 10.1589C14.3437 11.7068 14.3437 13.2101 14.3437 14.7171C14.3437 14.899 14.2695 15.0252 14.0913 15.0809C12.1166 15.7082 10.1381 16.3355 8.13373 16.9702Z" fill="#634AF9"/>
<path d="M5.90296 0.667726C5.96235 0.693709 6.04401 0.723404 6.12196 0.760523C6.54511 0.949829 7.03137 0.767947 7.18727 0.318809C7.33574 -0.108057 7.66981 0.0367064 7.95563 0.00701133C8.21917 -0.0189718 8.43075 0.0144351 8.53097 0.329945C8.66831 0.756811 9.1954 0.964676 9.6037 0.749387C10.0417 0.519251 10.1605 0.920134 10.3906 1.09459C10.5948 1.25049 10.6801 1.42495 10.5317 1.69592C10.2718 2.18217 10.45 2.6276 10.9697 2.80577C11.2332 2.89857 11.3112 3.06189 11.2778 3.30316C11.2406 3.58155 11.4225 3.91933 10.9957 4.09008C10.3758 4.33506 10.2718 4.62088 10.5205 5.24819C10.5539 5.33356 10.5911 5.40408 10.5614 5.49688C10.424 5.91261 9.81528 6.19843 9.42924 6.03139C9.10631 5.89034 8.64604 6.05738 8.56067 6.39887C8.44188 6.87399 8.12637 6.88512 7.73292 6.89997C7.34317 6.91111 7.18356 6.7515 7.07962 6.41C6.96456 6.03882 6.50428 5.83838 6.18135 6.04995C5.76191 6.32834 5.58374 6.02397 5.33504 5.80497C5.07892 5.58225 4.99355 5.3781 5.1977 5.05517C5.39072 4.74337 5.1977 4.2534 4.83023 4.15689C4.28087 4.00842 4.45533 3.58898 4.41821 3.23264C4.3848 2.91341 4.54441 2.79835 4.81909 2.71297C5.20141 2.5979 5.38701 2.11165 5.22368 1.72932C5.07892 1.41381 5.52806 0.678862 5.90296 0.667726ZM7.83314 2.11907C7.10932 2.12649 6.55625 2.69812 6.57481 3.42194C6.59337 4.12349 7.15386 4.67656 7.84798 4.67656C8.55324 4.68027 9.13601 4.09008 9.13229 3.38482C9.12858 2.66843 8.55324 2.10794 7.83314 2.11907Z" fill="#634AF9"/>
<path d="M14.7334 2.23046C14.7334 3.32918 14.7372 4.29056 14.7297 5.25564C14.7297 5.47465 14.8188 5.79758 14.4773 5.805C14.1321 5.81614 14.2026 5.49692 14.2026 5.2742C14.1989 4.29427 14.2026 3.31433 14.2026 2.20819C14.0319 2.42348 13.9205 2.55711 13.8203 2.69816C13.7015 2.86891 13.5494 2.94686 13.3786 2.81323C13.219 2.69074 13.271 2.53112 13.386 2.39007C13.6644 2.03373 13.9354 1.66997 14.2175 1.31363C14.3994 1.08349 14.5775 1.10947 14.752 1.3359C15.0304 1.69595 15.3088 2.05229 15.5909 2.40863C15.706 2.5534 15.7468 2.70558 15.5872 2.83179C15.4127 2.97284 15.2642 2.89118 15.1418 2.73157C15.0304 2.59052 14.919 2.4606 14.7334 2.23046Z" fill="#634AF9"/>
<path d="M1.50807 2.24154C1.50807 3.34768 1.50807 4.33132 1.50807 5.31497C1.50807 5.53768 1.53405 5.81236 1.22597 5.80865C0.89932 5.80494 0.97727 5.50799 0.973558 5.30384C0.969846 4.30905 0.969846 3.31427 0.969846 2.20442C0.776828 2.44569 0.646912 2.61272 0.509573 2.76862C0.387081 2.90596 0.234893 2.95422 0.0864182 2.8243C-0.0546332 2.70181 -0.00266693 2.56447 0.0975538 2.43455C0.383369 2.06337 0.672895 1.69218 0.962422 1.3247C1.12946 1.11312 1.30763 1.12426 1.47095 1.3247C1.76419 1.68847 2.05743 2.05594 2.33582 2.43084C2.43975 2.57189 2.47316 2.73893 2.2987 2.854C2.15394 2.9505 2.02031 2.8874 1.91638 2.75749C1.80131 2.61272 1.68624 2.46425 1.50807 2.24154Z" fill="#634AF9"/>
</svg>
