<svg width="31" height="30" viewBox="0 0 31 30" fill="none" xmlns="http://www.w3.org/2000/svg">
<path d="M8.01762 25.7098C7.91071 25.6742 7.80381 25.6385 7.71473 25.6029C6.44973 25.1753 5.87958 23.6965 6.55663 22.5384C6.77043 22.1642 7.03768 21.8435 7.25149 21.4694C7.32276 21.3446 7.37621 21.1487 7.34057 21.0061C6.36064 17.4071 5.38071 13.7903 4.36515 10.1912C4.22261 9.65674 3.90191 9.17568 3.65247 8.67681C3.61684 8.60554 3.45648 8.56991 3.34958 8.56991C2.61909 8.55209 1.87078 8.56991 1.14028 8.56991C0.445423 8.56991 0 8.1423 0 7.48308C0 6.84167 0.445423 6.43188 1.12247 6.41406C2.13803 6.41406 3.1536 6.41406 4.16916 6.41406C4.68585 6.41406 5.04219 6.62787 5.27381 7.09111C5.45198 7.44744 5.63015 7.78596 5.7905 8.1423C5.91522 8.39174 6.0043 8.67681 6.39628 8.48083C6.52099 12.2224 7.98198 15.2156 11.0287 17.3715C13.0776 18.8146 15.3938 19.4382 17.906 19.2601C23.8747 18.8681 28.4536 13.5586 27.8835 7.50089C28.2933 7.50089 28.7031 7.46526 29.1129 7.50089C29.7899 7.57216 30.1819 8.19575 29.9859 8.8728C29.1307 12.0442 28.2576 15.1978 27.4024 18.3692C27.2064 19.0641 27.0283 19.7411 26.8323 20.436C26.6363 21.1487 26.3512 21.3981 25.6029 21.4337C20.9171 21.7188 16.2312 22.0217 11.5275 22.3068C10.8327 22.3424 10.1378 22.3958 9.44297 22.4315C9.22917 22.4493 9.08663 22.5027 8.97973 22.6987C8.81938 22.9838 8.62339 23.2332 8.39177 23.5718C8.56994 23.5718 8.69466 23.5718 8.81938 23.5718C15.1266 23.5718 21.4159 23.5718 27.7231 23.5718C28.3824 23.5718 28.7387 23.8212 28.8812 24.3557C29.0594 25.0862 28.614 25.692 27.8657 25.7098C27.7053 25.7098 27.545 25.7098 27.349 25.7098C27.7588 26.3868 27.9726 27.0639 27.8122 27.83C27.6519 28.5783 27.2599 29.1663 26.6185 29.5761C25.6029 30.2175 24.3023 30.1284 23.4114 29.3266C22.3959 28.4358 22.2533 27.3133 22.9838 25.7276C19.4383 25.7276 15.8927 25.7276 12.3115 25.7276C12.8104 26.5116 12.9885 27.3311 12.6678 28.222C12.4718 28.7921 12.1155 29.2375 11.5988 29.5582C10.5654 30.2175 9.24698 30.1106 8.33832 29.3088C7.35839 28.4358 7.25149 27.242 8.01762 25.7098ZM10.1735 27.8835C10.4585 27.8835 10.708 27.6518 10.708 27.3668C10.708 27.0817 10.4764 26.8323 10.1913 26.8144C9.88839 26.7966 9.63895 27.0461 9.63895 27.3489C9.63895 27.6518 9.87057 27.8835 10.1735 27.8835ZM25.2109 27.8835C25.496 27.8835 25.7455 27.6518 25.7455 27.3668C25.7455 27.0817 25.5138 26.8323 25.2288 26.8144C24.9259 26.7966 24.6764 27.0461 24.6764 27.3489C24.6764 27.6518 24.9259 27.8835 25.2109 27.8835Z" fill="#634AF9"/>
<path d="M17.1757 0C21.915 0 25.7635 3.88409 25.7456 8.60557C25.7278 13.3271 21.8615 17.1577 17.1401 17.1577C12.4008 17.1577 8.53449 13.2914 8.55231 8.55212C8.57012 3.83064 12.4364 0 17.1757 0ZM16.071 9.22917C15.6078 8.74811 15.1802 8.30268 14.717 7.87508C14.521 7.69691 14.2715 7.57219 14.0221 7.51874C13.5945 7.44747 13.1491 7.73254 12.9353 8.16015C12.7393 8.56994 12.8106 8.97973 13.1491 9.33607C13.8261 10.0131 14.5032 10.6902 15.1802 11.3672C15.7682 11.9552 16.3383 11.9552 16.9263 11.385C17.7458 10.5654 18.5476 9.76367 19.3672 8.94409C19.9373 8.37395 20.5075 7.82163 21.0776 7.23367C21.4696 6.8417 21.5408 6.43191 21.327 6.02212C20.9885 5.30944 20.1511 5.14909 19.581 5.71923C18.4407 6.85951 17.2826 8.03543 16.071 9.22917Z" fill="#634AF9"/>
</svg>
