<svg width="18" height="17" viewBox="0 0 18 17" fill="none" xmlns="http://www.w3.org/2000/svg">
<path d="M17.2076 13.5212C17.2076 13.5631 17.1936 13.6051 17.1796 13.6436C17.0327 14.0318 16.7914 14.2067 16.3822 14.2067C14.6335 14.2067 12.8882 14.2067 11.1395 14.2067C10.6219 14.2067 10.3141 13.8989 10.3071 13.3813C10.3036 12.7098 10.3036 12.0382 10.3071 11.3667C10.3106 10.8456 10.6114 10.5413 11.1325 10.5413C12.8813 10.5378 14.6265 10.5413 16.3752 10.5378C16.7634 10.5378 17.0117 10.7127 17.1586 11.0275C17.1936 11.1009 17.2076 11.1779 17.2076 11.2583V13.5212Z" fill="#634AF9"/>
<path d="M4.3963 9.98516C4.32285 10.1915 4.26339 10.3629 4.19694 10.5482C4.35433 10.6462 4.50472 10.7371 4.65511 10.8315C5.14475 11.1358 5.6344 11.4401 6.12754 11.7374C6.53674 11.9857 6.7326 12.3354 6.68713 12.8146C6.60319 13.7274 6.52275 14.6438 6.43531 15.5566C6.41433 15.7734 6.40384 15.9938 6.35837 16.2071C6.25344 16.7003 5.7673 17.05 5.29514 16.9941C4.74604 16.9276 4.34733 16.5149 4.37182 15.9833C4.3998 15.3747 4.46625 14.7662 4.51871 14.1611C4.54319 13.8778 4.57467 13.5945 4.59565 13.3077C4.59915 13.2588 4.58166 13.1888 4.55019 13.1643C4.33684 13.0209 4.1165 12.8915 3.88217 12.7481C3.92414 12.9265 3.9766 13.0769 3.99409 13.2343C4.02557 13.5036 3.93114 13.7414 3.77375 13.9548C3.13721 14.8186 2.50068 15.686 1.85715 16.5464C1.55986 16.9451 1.11569 17.085 0.685501 16.9381C0.276299 16.7982 0 16.4135 0 15.9798C0 15.7245 0.101426 15.5041 0.251817 15.3013C0.744957 14.6368 1.2346 13.9688 1.73124 13.3042C1.81518 13.1923 1.82217 13.1014 1.77671 12.972C1.48642 12.1606 1.19963 11.3492 0.926825 10.5343C0.772937 10.0726 0.797419 9.61793 0.975789 9.15626C1.34652 8.19796 1.68577 7.22567 2.03901 6.26037C2.04951 6.23589 2.0565 6.20791 2.09847 6.17993C2.11596 6.31983 2.13345 6.45973 2.14744 6.59963C2.23487 7.36207 2.30132 8.12451 2.41674 8.88346C2.54964 9.74733 3.39603 10.258 4.23541 10.0236C4.28088 10.0096 4.32285 9.99915 4.3963 9.98516Z" fill="#634AF9"/>
<path d="M7.90055 8.93587C7.46337 8.93587 7.05067 8.93237 6.63797 8.93587C6.43162 8.93937 6.25325 8.8974 6.10286 8.74701C6.07138 8.71553 5.98045 8.71903 5.92798 8.74001C5.3509 8.96385 4.77732 9.20168 4.19675 9.42551C3.61967 9.64585 3.09155 9.34507 2.97613 8.73652C2.95165 8.60012 2.93766 8.46022 2.92367 8.32032C2.84673 7.64181 2.77678 6.96331 2.69284 6.2848C2.62639 5.72171 2.8852 5.30202 3.37484 5.20059C3.854 5.10266 4.31916 5.40344 4.3961 5.88609C4.47304 6.37923 4.51851 6.87237 4.58147 7.39349C4.63393 7.37251 4.68289 7.35852 4.73186 7.34103C5.29844 7.1172 5.86153 6.88636 6.43162 6.66602C6.97722 6.45618 7.52282 6.71499 7.64174 7.2536C7.67671 7.41098 7.64873 7.58585 7.64873 7.77122C7.6907 7.77472 7.75016 7.77821 7.80961 7.77821C8.04394 7.78171 8.28177 7.77122 8.5161 7.78521C8.82387 7.8027 9.03022 8.01254 9.0652 8.32032C9.07219 8.38677 9.0687 8.45322 9.0687 8.52317C9.0687 10.6112 9.0687 12.6991 9.0687 14.7906C9.0687 14.8571 9.0687 14.9235 9.0687 15.0144C9.14914 15.0144 9.22258 15.0144 9.29253 15.0144C11.4155 15.0144 13.5384 15.0144 15.6579 15.0144C16.0041 15.0144 16.214 15.1473 16.3014 15.4166C16.4168 15.7734 16.172 16.1406 15.8013 16.1651C15.6229 16.1756 15.4411 16.1616 15.2627 16.1756C15.2137 16.1791 15.1438 16.2281 15.1263 16.2735C14.9584 16.6932 14.6296 16.938 14.2134 16.938C13.7903 16.938 13.4545 16.6967 13.3006 16.277C13.2726 16.1966 13.2342 16.1651 13.1467 16.1651C12.5032 16.1686 11.8597 16.1686 11.2161 16.1651C11.1112 16.1651 11.0762 16.2071 11.0448 16.298C10.9084 16.6862 10.5516 16.9345 10.1459 16.9345C9.72971 16.9345 9.37997 16.6967 9.24007 16.291C9.2016 16.1826 9.14914 16.1581 9.04771 16.1616C8.86235 16.1686 8.67698 16.1686 8.49511 16.1616C8.16635 16.1511 7.93902 15.9378 7.91104 15.609C7.90404 15.5496 7.90754 15.4866 7.90754 15.4236C7.90754 13.3357 7.90754 11.2477 7.90754 9.15621C7.90055 9.09326 7.90055 9.0268 7.90055 8.93587Z" fill="#634AF9"/>
<path d="M11.9369 9.48154C11.4683 9.48154 10.9961 9.48503 10.5275 9.48154C9.99234 9.47804 9.68807 9.17376 9.68457 8.63515C9.68107 8.05807 9.68107 7.48099 9.68457 6.90392C9.68457 6.36181 9.99584 6.05054 10.5414 6.05054C11.4823 6.05054 12.4231 6.05054 13.3639 6.05054C13.8955 6.05054 14.2138 6.36531 14.2138 6.89342C14.2173 7.474 14.2173 8.05807 14.2138 8.63865C14.2103 9.17376 13.906 9.47804 13.3674 9.48154C12.8882 9.48154 12.4126 9.48154 11.9369 9.48154Z" fill="#634AF9"/>
<path d="M6.79901 1.79769C6.8025 2.78747 6.00508 3.59538 5.01181 3.59888C4.01853 3.60238 3.20013 2.78747 3.20362 1.80119C3.21062 0.811409 4.02203 0.00349745 5.00481 0C5.9876 0 6.79551 0.807912 6.79901 1.79769Z" fill="#634AF9"/>
<path d="M2.58105 4.94882C2.88184 4.51863 3.26306 4.26682 3.7492 4.19687C4.73898 4.06047 5.55039 4.65503 5.73925 5.63782C5.74275 5.6658 5.74625 5.69378 5.74975 5.72176C5.78822 6.30233 5.72526 6.38278 5.08173 6.56115C5.05026 6.31283 5.02228 6.06451 4.9838 5.81619C4.81593 4.73198 3.52886 4.21785 2.658 4.91734C2.64051 4.92784 2.62652 4.93133 2.58105 4.94882Z" fill="#634AF9"/>
</svg>
