<svg width="29" height="30" viewBox="0 0 29 30" fill="none" xmlns="http://www.w3.org/2000/svg">
<path d="M27.5794 30C18.785 30 9.99062 30 1.19625 30C1.14117 29.9816 1.08609 29.9449 1.03101 29.9265C0.333333 29.6879 -0.0705836 29.0453 0.0212157 28.3292C0.113015 27.6316 0.71889 27.1358 1.45328 27.1175C1.63688 27.1175 1.83884 27.1175 2.05916 27.1175C2.05916 22.1053 2.05916 17.1114 2.05916 12.1175C2.77519 12.0991 3.39943 11.9155 3.96858 11.5483C4.04202 11.5116 4.17054 11.53 4.24398 11.5667C4.62954 11.7136 5.0151 11.9155 5.40065 12.0257C5.78621 12.1175 6.19013 12.0991 6.59404 12.1359C6.59404 12.246 6.59404 12.3562 6.59404 12.4663C6.59404 16.0098 6.59404 19.5349 6.59404 23.0783C6.59404 23.9412 7.03468 24.3819 7.89759 24.3819C9.14606 24.3819 10.3762 24.3819 11.6246 24.3819C11.7164 24.3819 11.7899 24.3635 11.8817 24.3635C11.8817 23.3354 11.8817 22.3439 11.8817 21.2607C11.386 22.0685 10.9453 22.8396 10.4863 23.574C10.1742 24.0881 9.62342 24.2534 9.16442 23.9596C8.70543 23.6842 8.61363 23.1334 8.90738 22.6193C9.84374 21.0404 10.7984 19.4798 11.7348 17.9008C11.9368 17.552 12.2305 17.3684 12.6528 17.3684C13.7911 17.3684 14.9478 17.3684 16.0861 17.3684C16.49 17.3684 16.7654 17.552 16.9674 17.8825C17.9221 19.4798 18.8768 21.0587 19.8315 22.656C20.1253 23.1518 19.9967 23.7026 19.5561 23.9596C19.0971 24.235 18.5647 24.0881 18.2709 23.6108C17.8486 22.9314 17.4447 22.2338 17.0408 21.5545C16.9857 21.481 16.949 21.4076 16.8572 21.2791C16.8572 22.3439 16.8572 23.3537 16.8572 24.3635C18.2893 24.3635 19.6846 24.3635 21.0983 24.3635C21.1718 24.3635 21.2268 24.3452 21.3003 24.3268C21.8511 24.1616 22.1265 23.7393 22.1265 23.0783C22.1265 19.5349 22.1265 15.9914 22.1265 12.448C22.1265 12.3378 22.1265 12.2277 22.1265 12.0808C22.7874 12.1909 23.43 12.1359 23.9625 11.8237C24.4765 11.53 24.8621 11.5483 25.3578 11.8237C25.7434 12.0257 26.2207 12.0624 26.7164 12.1909C26.7164 17.1297 26.7164 22.1236 26.7164 27.1359C26.9735 27.1359 27.1938 27.1175 27.4325 27.1359C28.3137 27.1909 28.938 28.0722 28.7177 28.9351C28.5524 29.5226 28.1302 29.8164 27.5794 30Z" fill="#634AF9"/>
<path d="M24.642 8.84945C24.3115 9.9694 23.6873 10.5018 22.6775 10.5753C21.7411 10.6487 21.1169 10.1346 20.5294 8.86781C20.2356 9.93268 19.593 10.5753 18.4731 10.5753C17.4633 10.5936 16.8574 10.0428 16.4168 8.83109C16.123 9.93268 15.462 10.5753 14.3237 10.5753C13.3323 10.5753 12.7081 10.0061 12.3041 8.83109C12.0104 9.95104 11.3311 10.5936 10.156 10.5753C9.20133 10.5569 8.5771 9.98776 8.19154 8.84945C7.82434 10.0612 7.05323 10.6854 5.7864 10.5386C4.99693 10.4468 4.35433 9.7858 4.11565 8.81273C4.06057 8.97797 4.02385 9.08813 3.96877 9.19829C3.60158 10.1714 2.64686 10.7222 1.63707 10.5202C0.645641 10.3366 -0.052034 9.43696 0.00304552 8.39045C0.0214054 8.17013 0.0764849 7.94982 0.131564 7.7295C0.70072 5.78335 1.28824 3.83721 1.87575 1.90942C2.29803 0.642595 3.16094 0 4.50121 0C11.0924 0 17.6836 0 24.2748 0C25.6334 0 26.4963 0.642595 26.8819 1.94614C27.4694 3.91065 28.0569 5.89351 28.6444 7.85802C28.9749 8.95961 28.4792 10.0061 27.4877 10.4284C26.4229 10.869 25.2295 10.355 24.8072 9.29009C24.7521 9.14321 24.7154 9.01469 24.642 8.84945Z" fill="#634AF9"/>
<path d="M14.5442 16.5973C13.6813 16.5606 13.1489 16.2301 12.8 15.6059C12.3043 14.7062 12.3411 13.8066 12.9469 12.962C13.6079 12.044 14.8196 11.9522 15.6275 12.7417C16.674 13.7515 16.472 15.6609 15.2235 16.3586C14.9849 16.5055 14.6911 16.5606 14.5442 16.5973Z" fill="#634AF9"/>
</svg>
