<svg width="40" height="40" viewBox="0 0 40 40" fill="none" xmlns="http://www.w3.org/2000/svg">
<rect width="40" height="40" rx="5" fill="#FFB300"/>
<path d="M15.8465 26.4035H16.841V24.1535H19.091V23.159H16.841V20.909H15.8465V23.159H13.5965V24.1535H15.8465V26.4035ZM21.4715 25.5597H26.4035V24.5653H21.4715V25.5597ZM21.4715 22.7473H26.4035V21.7527H21.4715V22.7473ZM22.3625 18.299L23.9375 16.724L25.5125 18.299L26.2179 17.5948L24.6429 16.0062L26.2179 14.4313L25.5125 13.7259L23.9375 15.3009L22.3625 13.7259L21.6571 14.4313L23.2321 16.0062L21.6571 17.5948L22.3625 18.299ZM13.8778 16.5035H18.8098V15.509H13.8778V16.5035ZM12.8169 29C12.2994 29 11.8674 28.8267 11.5209 28.4802C11.1736 28.133 11 27.7006 11 27.1831V12.8169C11 12.2994 11.1736 11.8674 11.5209 11.5209C11.8674 11.1736 12.2994 11 12.8169 11H27.1831C27.7006 11 28.1326 11.1736 28.4791 11.5209C28.8264 11.8674 29 12.2994 29 12.8169V27.1831C29 27.7006 28.8267 28.1326 28.4802 28.4791C28.133 28.8264 27.7006 29 27.1831 29H12.8169ZM12.8169 27.875H27.1831C27.3556 27.875 27.5142 27.803 27.659 27.659C27.803 27.5142 27.875 27.3556 27.875 27.1831V12.8169C27.875 12.6444 27.803 12.4857 27.659 12.341C27.5142 12.197 27.3556 12.125 27.1831 12.125H12.8169C12.6444 12.125 12.4857 12.197 12.341 12.341C12.197 12.4857 12.125 12.6444 12.125 12.8169V27.1831C12.125 27.3556 12.197 27.5142 12.341 27.659C12.4857 27.803 12.6444 27.875 12.8169 27.875Z" fill="white"/>
</svg>
