<svg width="40" height="40" viewBox="0 0 40 40" fill="none" xmlns="http://www.w3.org/2000/svg">
<rect width="40" height="40" rx="5" fill="#FF3D00"/>
<path d="M31.2 11.9998V10.3998H28.8V8.7998H27.2V10.3998H26.4C25.5176 10.3998 24.8 11.1182 24.8 11.9998V13.5998C24.8 14.4822 25.5176 15.1998 26.4 15.1998H29.6V16.7998H24.8V18.3998H27.2V19.9998H28.8V18.3998H29.6C30.4824 18.3998 31.2 17.6822 31.2 16.7998V15.1998C31.2 14.3182 30.4824 13.5998 29.6 13.5998H26.4V11.9998H31.2ZM26.4 23.1998V24.7998H28.4688L25.6 27.6686L23.7664 25.8342C23.6167 25.6844 23.4135 25.6001 23.2016 25.5998H23.2C23.0951 25.5998 22.9912 25.6205 22.8943 25.6607C22.7974 25.701 22.7093 25.7599 22.6352 25.8342L18.4 30.0686L19.5312 31.1998L23.2008 27.531L25.0344 29.3654C25.1845 29.5154 25.3879 29.5996 25.6 29.5996C25.8122 29.5996 26.0156 29.5154 26.1656 29.3654L29.6 25.931V27.9998H31.2V23.1998H26.4ZM10.4 31.1998H8.80005V27.1998C8.80005 24.1118 11.312 21.5998 14.4 21.5998H19.2C20.7912 21.5998 22.312 22.2798 23.3736 23.4662L22.1816 24.5334C21.8062 24.1142 21.3467 23.7787 20.8329 23.549C20.3192 23.3192 19.7628 23.2002 19.2 23.1998H14.4C12.1944 23.1998 10.4 24.9942 10.4 27.1998V31.1998ZM16.8 19.9998C18.2853 19.9998 19.7096 19.4098 20.7598 18.3596C21.8101 17.3094 22.4 15.885 22.4 14.3998C22.4 12.9146 21.8101 11.4902 20.7598 10.44C19.7096 9.3898 18.2853 8.7998 16.8 8.7998C15.3148 8.7998 13.8905 9.3898 12.8403 10.44C11.79 11.4902 11.2 12.9146 11.2 14.3998C11.2 15.885 11.79 17.3094 12.8403 18.3596C13.8905 19.4098 15.3148 19.9998 16.8 19.9998ZM16.8 10.3998C17.8609 10.3998 18.8783 10.8212 19.6285 11.5714C20.3786 12.3215 20.8 13.3389 20.8 14.3998C20.8 15.4607 20.3786 16.4781 19.6285 17.2282C18.8783 17.9784 17.8609 18.3998 16.8 18.3998C15.7392 18.3998 14.7218 17.9784 13.9716 17.2282C13.2215 16.4781 12.8 15.4607 12.8 14.3998C12.8 13.3389 13.2215 12.3215 13.9716 11.5714C14.7218 10.8212 15.7392 10.3998 16.8 10.3998Z" fill="white"/>
</svg>
