<svg width="40" height="40" viewBox="0 0 40 40" fill="none" xmlns="http://www.w3.org/2000/svg">
<rect width="40" height="40" rx="5" fill="#FFB300"/>
<path d="M31.1998 11.9998V10.3998H28.7998V8.7998H27.1998V10.3998H26.3998C25.5174 10.3998 24.7998 11.1182 24.7998 11.9998V13.5998C24.7998 14.4822 25.5174 15.1998 26.3998 15.1998H29.5998V16.7998H24.7998V18.3998H27.1998V19.9998H28.7998V18.3998H29.5998C30.4822 18.3998 31.1998 17.6822 31.1998 16.7998V15.1998C31.1998 14.3182 30.4822 13.5998 29.5998 13.5998H26.3998V11.9998H31.1998ZM26.3998 23.1998V24.7998H28.4686L25.5998 27.6686L23.7662 25.8342C23.6164 25.6844 23.4133 25.6001 23.2014 25.5998H23.1998C23.0949 25.5998 22.991 25.6205 22.894 25.6607C22.7971 25.701 22.7091 25.7599 22.635 25.8342L18.3998 30.0686L19.531 31.1998L23.2006 27.531L25.0342 29.3654C25.1842 29.5154 25.3877 29.5996 25.5998 29.5996C25.8119 29.5996 26.0154 29.5154 26.1654 29.3654L29.5998 25.931V27.9998H31.1998V23.1998H26.3998ZM10.3998 31.1998H8.7998V27.1998C8.7998 24.1118 11.3118 21.5998 14.3998 21.5998H19.1998C20.791 21.5998 22.3118 22.2798 23.3734 23.4662L22.1814 24.5334C21.806 24.1142 21.3464 23.7787 20.8327 23.549C20.319 23.3192 19.7626 23.2002 19.1998 23.1998H14.3998C12.1942 23.1998 10.3998 24.9942 10.3998 27.1998V31.1998ZM16.7998 19.9998C18.285 19.9998 19.7094 19.4098 20.7596 18.3596C21.8098 17.3094 22.3998 15.885 22.3998 14.3998C22.3998 12.9146 21.8098 11.4902 20.7596 10.44C19.7094 9.3898 18.285 8.7998 16.7998 8.7998C15.3146 8.7998 13.8902 9.3898 12.84 10.44C11.7898 11.4902 11.1998 12.9146 11.1998 14.3998C11.1998 15.885 11.7898 17.3094 12.84 18.3596C13.8902 19.4098 15.3146 19.9998 16.7998 19.9998ZM16.7998 10.3998C17.8607 10.3998 18.8781 10.8212 19.6282 11.5714C20.3784 12.3215 20.7998 13.3389 20.7998 14.3998C20.7998 15.4607 20.3784 16.4781 19.6282 17.2282C18.8781 17.9784 17.8607 18.3998 16.7998 18.3998C15.7389 18.3998 14.7215 17.9784 13.9714 17.2282C13.2212 16.4781 12.7998 15.4607 12.7998 14.3998C12.7998 13.3389 13.2212 12.3215 13.9714 11.5714C14.7215 10.8212 15.7389 10.3998 16.7998 10.3998Z" fill="white"/>
</svg>
