<svg width="10" height="13" viewBox="0 0 10 13" fill="none" xmlns="http://www.w3.org/2000/svg">
<path d="M4.99985 0L0.29285 4.707C0.200005 4.79984 0.126356 4.91007 0.0761089 5.03137C0.0258618 5.15268 9.78277e-10 5.2827 0 5.414C-9.78277e-10 5.5453 0.0258618 5.67532 0.0761089 5.79663C0.126356 5.91793 0.200005 6.02816 0.29285 6.121C0.385694 6.21384 0.495916 6.28749 0.617224 6.33774C0.738531 6.38799 0.868547 6.41385 0.999849 6.41385C1.13115 6.41385 1.26117 6.38799 1.38247 6.33774C1.50378 6.28749 1.614 6.21384 1.70685 6.121L3.99985 3.828V11.414C3.99985 11.6792 4.10521 11.9336 4.29274 12.1211C4.48028 12.3086 4.73463 12.414 4.99985 12.414C5.26507 12.414 5.51942 12.3086 5.70696 12.1211C5.89449 11.9336 5.99985 11.6792 5.99985 11.414V3.828L8.29285 6.121C8.3855 6.21418 8.49566 6.28813 8.617 6.3386C8.73833 6.38906 8.86844 6.41503 8.99985 6.41503C9.13126 6.41503 9.26137 6.38906 9.3827 6.3386C9.50403 6.28813 9.6142 6.21418 9.70685 6.121C9.7998 6.02821 9.87353 5.91801 9.92384 5.79669C9.97415 5.67538 10 5.54533 10 5.414C10 5.28267 9.97415 5.15262 9.92384 5.03131C9.87353 4.90999 9.7998 4.79979 9.70685 4.707L4.99985 0Z" fill="#04B076"/>
</svg>
