<svg width="39" height="35" viewBox="0 0 39 35" fill="none" xmlns="http://www.w3.org/2000/svg">
<path d="M36.75 17.5V31.5C36.75 32.4283 36.3812 33.3185 35.7249 33.9749C35.0685 34.6312 34.1783 35 33.25 35H5.25C4.32174 35 3.4315 34.6312 2.77513 33.9749C2.11875 33.3185 1.75 32.4283 1.75 31.5V17.5C1.28587 17.5 0.840752 17.3156 0.512563 16.9874C0.184374 16.6592 0 16.2141 0 15.75V10.5C0 9.57174 0.368749 8.6815 1.02513 8.02513C1.6815 7.36875 2.57174 7 3.5 7H9.0475C8.84972 6.43778 8.74912 5.84599 8.75 5.25C8.75 3.85761 9.30312 2.52226 10.2877 1.53769C11.2723 0.553124 12.6076 0 14 0C15.75 0 17.29 0.875 18.2525 2.17V2.1525L19.25 3.5L20.2475 2.1525V2.17C21.21 0.875 22.75 0 24.5 0C25.8924 0 27.2277 0.553124 28.2123 1.53769C29.1969 2.52226 29.75 3.85761 29.75 5.25C29.7509 5.84599 29.6503 6.43778 29.4525 7H35C35.9283 7 36.8185 7.36875 37.4749 8.02513C38.1312 8.6815 38.5 9.57174 38.5 10.5V15.75C38.5 16.2141 38.3156 16.6592 37.9874 16.9874C37.6592 17.3156 37.2141 17.5 36.75 17.5ZM5.25 31.5H17.5V17.5H5.25V31.5ZM33.25 31.5V17.5H21V31.5H33.25ZM14 3.5C13.5359 3.5 13.0908 3.68437 12.7626 4.01256C12.4344 4.34075 12.25 4.78587 12.25 5.25C12.25 5.71413 12.4344 6.15925 12.7626 6.48744C13.0908 6.81563 13.5359 7 14 7C14.4641 7 14.9092 6.81563 15.2374 6.48744C15.5656 6.15925 15.75 5.71413 15.75 5.25C15.75 4.78587 15.5656 4.34075 15.2374 4.01256C14.9092 3.68437 14.4641 3.5 14 3.5ZM24.5 3.5C24.0359 3.5 23.5908 3.68437 23.2626 4.01256C22.9344 4.34075 22.75 4.78587 22.75 5.25C22.75 5.71413 22.9344 6.15925 23.2626 6.48744C23.5908 6.81563 24.0359 7 24.5 7C24.9641 7 25.4092 6.81563 25.7374 6.48744C26.0656 6.15925 26.25 5.71413 26.25 5.25C26.25 4.78587 26.0656 4.34075 25.7374 4.01256C25.4092 3.68437 24.9641 3.5 24.5 3.5ZM3.5 10.5V14H17.5V10.5H3.5ZM21 10.5V14H35V10.5H21Z" fill="#2591FA"/>
</svg>
