<svg width="39" height="39" viewBox="0 0 39 39" fill="none" xmlns="http://www.w3.org/2000/svg">
<path d="M6.03846 15.2407V30.2002M15.0119 15.2407V30.2002M23.9881 15.2407V30.2002M32.9615 15.2407V30.2002M35.4115 15.2407H3.58846C2.08077 15.2407 1.43462 13.5815 2.61923 12.7927L18.5308 2.26665C18.8245 2.09206 19.1592 2 19.5 2C19.8408 2 20.1755 2.09206 20.4692 2.26665L36.3808 12.7927C37.5654 13.5815 36.9192 15.2407 35.4115 15.2407ZM35.6538 30.2002H3.34615C2.98913 30.2002 2.64673 30.3435 2.39428 30.5985C2.14183 30.8536 2 31.1995 2 31.5602V35.64C2 36.0007 2.14183 36.3466 2.39428 36.6017C2.64673 36.8567 2.98913 37 3.34615 37H35.6538C36.0109 37 36.3533 36.8567 36.6057 36.6017C36.8582 36.3466 37 36.0007 37 35.64V31.5602C37 31.1995 36.8582 30.8536 36.6057 30.5985C36.3533 30.3435 36.0109 30.2002 35.6538 30.2002Z" stroke="#04B076" stroke-width="3" stroke-linecap="round" stroke-linejoin="round"/>
</svg>
