<svg width="22" height="20" viewBox="0 0 22 20" fill="none" xmlns="http://www.w3.org/2000/svg">
<path d="M1.42857 6.86429H6.86429V1.42857H14.2857V7.41429H15.7143V1.42857C15.7143 1.04969 15.5638 0.686328 15.2959 0.418419C15.028 0.15051 14.6646 0 14.2857 0H4.90714L0 4.90714V18.5714C0 18.9503 0.15051 19.3137 0.418419 19.5816C0.686328 19.8495 1.04969 20 1.42857 20H14.2857C14.6646 20 15.028 19.8495 15.2959 19.5816C15.5638 19.3137 15.7143 18.9503 15.7143 18.5714H1.42857V6.86429ZM1.42857 5.49286L5.49286 1.42857H5.71429V5.71429H1.42857V5.49286Z" fill="white"/>
<path d="M17.3714 8.82215C17.2347 8.70513 17.0589 8.64398 16.8792 8.65092C16.6994 8.65787 16.5289 8.73239 16.4017 8.8596C16.2745 8.98681 16.1999 9.15734 16.193 9.33711C16.186 9.51688 16.2472 9.69264 16.3642 9.82929L18.6856 12.1436H9.99993C9.81049 12.1436 9.62881 12.2188 9.49485 12.3528C9.3609 12.4867 9.28564 12.6684 9.28564 12.8579C9.28564 13.0473 9.3609 13.229 9.49485 13.3629C9.62881 13.4969 9.81049 13.5721 9.99993 13.5721H18.7071L16.3642 15.915C16.2894 15.979 16.2287 16.0578 16.1858 16.1465C16.143 16.2351 16.1189 16.3316 16.1151 16.43C16.1113 16.5283 16.1279 16.6264 16.1638 16.7181C16.1997 16.8098 16.2541 16.893 16.3238 16.9626C16.3934 17.0322 16.4766 17.0867 16.5683 17.1226C16.6599 17.1585 16.758 17.1751 16.8564 17.1713C16.9548 17.1675 17.0513 17.1434 17.1399 17.1005C17.2285 17.0576 17.3073 16.9969 17.3714 16.9221L21.4285 12.8579L17.3714 8.82215Z" fill="white"/>
</svg>
