<svg width="22" height="17" viewBox="0 0 22 17" fill="none" xmlns="http://www.w3.org/2000/svg">
<path d="M20 5C18.5 5 17.7 6.4 18.1 7.5L14.5 11.1C14.2 11 13.8 11 13.5 11.1L10.9 8.5C11.3 7.4 10.5 6 9 6C7.6 6 6.7 7.4 7.1 8.5L2.5 13C1.4 12.7 0 13.5 0 15C0 16.1 0.9 17 2 17C3.4 17 4.3 15.6 3.9 14.5L8.4 9.9C8.7 10 9.1 10 9.4 9.9L12 12.5C11.7 13.5 12.5 15 14 15C15.5 15 16.3 13.6 15.9 12.5L19.5 8.9C20.6 9.2 22 8.4 22 7C22 5.9 21.1 5 20 5ZM14 6L14.9 3.9L17 3L14.9 2.1L14 0L13.1 2.1L11 3L13.1 3.9L14 6ZM2.5 8L3 6L5 5.5L3 5L2.5 3L2 5L0 5.5L2 6L2.5 8Z" fill="white"/>
</svg>
