<svg width="15" height="18" viewBox="0 0 15 18" fill="none" xmlns="http://www.w3.org/2000/svg">
<path fill-rule="evenodd" clip-rule="evenodd" d="M2.73223 1.23223C3.20107 0.763392 3.83696 0.5 4.5 0.5H9.5C9.63261 0.5 9.75979 0.552678 9.85355 0.646447L14.8536 5.64645C14.9473 5.74021 15 5.86739 15 6V13C15 13.663 14.7366 14.2989 14.2678 14.7678C13.7989 15.2366 13.163 15.5 12.5 15.5H4.5C3.83696 15.5 3.20107 15.2366 2.73223 14.7678C2.26339 14.2989 2 13.663 2 13V3C2 2.33696 2.26339 1.70107 2.73223 1.23223ZM4.5 1.5C4.10218 1.5 3.72064 1.65804 3.43934 1.93934C3.15804 2.22064 3 2.60218 3 3V13C3 13.3978 3.15804 13.7794 3.43934 14.0607C3.72064 14.342 4.10218 14.5 4.5 14.5H12.5C12.8978 14.5 13.2794 14.342 13.5607 14.0607C13.842 13.7794 14 13.3978 14 13V6.20711L9.29289 1.5H4.5Z" fill="#404040"/>
<path fill-rule="evenodd" clip-rule="evenodd" d="M0.732233 3.23223C1.20107 2.76339 1.83696 2.5 2.5 2.5C2.77614 2.5 3 2.72386 3 3C3 3.27614 2.77614 3.5 2.5 3.5C2.10218 3.5 1.72064 3.65804 1.43934 3.93934C1.15804 4.22064 1 4.60218 1 5V15C1 15.3978 1.15804 15.7794 1.43934 16.0607C1.72064 16.342 2.10218 16.5 2.5 16.5H10.5C10.8978 16.5 11.2794 16.342 11.5607 16.0607C11.842 15.7794 12 15.3978 12 15C12 14.7239 12.2239 14.5 12.5 14.5C12.7761 14.5 13 14.7239 13 15C13 15.663 12.7366 16.2989 12.2678 16.7678C11.7989 17.2366 11.163 17.5 10.5 17.5H2.5C1.83696 17.5 1.20107 17.2366 0.732233 16.7678C0.263392 16.2989 0 15.663 0 15V5C0 4.33696 0.263392 3.70107 0.732233 3.23223ZM8.5 4.5C8.77614 4.5 9 4.72386 9 5V8.5H11.5C11.7761 8.5 12 8.72386 12 9C12 9.27614 11.7761 9.5 11.5 9.5H8.5C8.22386 9.5 8 9.27614 8 9V5C8 4.72386 8.22386 4.5 8.5 4.5Z" fill="#404040"/>
<circle cx="8.5" cy="9" r="1" fill="#404040"/>
</svg>
