<svg width="24" height="24" viewBox="0 0 24 24" fill="none" xmlns="http://www.w3.org/2000/svg">
<path d="M23.2 3.9998V2.3998H20.8V0.799805H19.2V2.3998H18.4C17.5176 2.3998 16.8 3.1182 16.8 3.9998V5.5998C16.8 6.4822 17.5176 7.1998 18.4 7.1998H21.6V8.7998H16.8V10.3998H19.2V11.9998H20.8V10.3998H21.6C22.4824 10.3998 23.2 9.68221 23.2 8.7998V7.1998C23.2 6.3182 22.4824 5.5998 21.6 5.5998H18.4V3.9998H23.2ZM18.4 15.1998V16.7998H20.4688L17.6 19.6686L15.7664 17.8342C15.6167 17.6844 15.4135 17.6001 15.2016 17.5998H15.2C15.0951 17.5998 14.9912 17.6205 14.8943 17.6607C14.7974 17.701 14.7093 17.7599 14.6352 17.8342L10.4 22.0686L11.5312 23.1998L15.2008 19.531L17.0344 21.3654C17.1845 21.5154 17.3879 21.5996 17.6 21.5996C17.8122 21.5996 18.0156 21.5154 18.1656 21.3654L21.6 17.931V19.9998H23.2V15.1998H18.4ZM2.40005 23.1998H0.800049V19.1998C0.800049 16.1118 3.31205 13.5998 6.40005 13.5998H11.2C12.7912 13.5998 14.312 14.2798 15.3736 15.4662L14.1816 16.5334C13.8062 16.1142 13.3467 15.7787 12.8329 15.549C12.3192 15.3192 11.7628 15.2002 11.2 15.1998H6.40005C4.19445 15.1998 2.40005 16.9942 2.40005 19.1998V23.1998ZM8.80005 11.9998C10.2853 11.9998 11.7096 11.4098 12.7598 10.3596C13.8101 9.3094 14.4 7.88502 14.4 6.3998C14.4 4.91459 13.8101 3.49021 12.7598 2.44001C11.7096 1.3898 10.2853 0.799805 8.80005 0.799805C7.31484 0.799805 5.89045 1.3898 4.84025 2.44001C3.79005 3.49021 3.20005 4.91459 3.20005 6.3998C3.20005 7.88502 3.79005 9.3094 4.84025 10.3596C5.89045 11.4098 7.31484 11.9998 8.80005 11.9998ZM8.80005 2.3998C9.86092 2.3998 10.8783 2.82123 11.6285 3.57138C12.3786 4.32152 12.8 5.33894 12.8 6.3998C12.8 7.46067 12.3786 8.47809 11.6285 9.22823C10.8783 9.97838 9.86092 10.3998 8.80005 10.3998C7.73918 10.3998 6.72177 9.97838 5.97162 9.22823C5.22148 8.47809 4.80005 7.46067 4.80005 6.3998C4.80005 5.33894 5.22148 4.32152 5.97162 3.57138C6.72177 2.82123 7.73918 2.3998 8.80005 2.3998Z" fill="white"/>
</svg>
