<svg width="20" height="20" viewBox="0 0 20 20" fill="none" xmlns="http://www.w3.org/2000/svg">
<path d="M8.42105 18.4211C8.42105 18.8398 8.58741 19.2414 8.88352 19.5375C9.17963 19.8336 9.58124 20 10 20C10.4188 20 10.8204 19.8336 11.1165 19.5375C11.4126 19.2414 11.5789 18.8398 11.5789 18.4211V11.5789H18.4211C18.8398 11.5789 19.2414 11.4126 19.5375 11.1165C19.8336 10.8204 20 10.4188 20 10C20 9.58124 19.8336 9.17963 19.5375 8.88352C19.2414 8.58741 18.8398 8.42105 18.4211 8.42105H11.5789V1.57895C11.5789 1.16018 11.4126 0.758573 11.1165 0.462463C10.8204 0.166353 10.4188 0 10 0C9.58124 0 9.17963 0.166353 8.88352 0.462463C8.58741 0.758573 8.42105 1.16018 8.42105 1.57895V8.42105H1.57895C1.16018 8.42105 0.758573 8.58741 0.462463 8.88352C0.166353 9.17963 0 9.58124 0 10C0 10.4188 0.166353 10.8204 0.462463 11.1165C0.758573 11.4126 1.16018 11.5789 1.57895 11.5789H8.42105V18.4211Z" fill="#04B076"/>
</svg>
