<svg width="19" height="20" viewBox="0 0 19 20" fill="none" xmlns="http://www.w3.org/2000/svg">
<path d="M15.988 0.505859L18.988 3.50586L16.701 5.79386L13.701 2.79386L15.988 0.505859ZM5 14.4939H8L15.287 7.20686L12.287 4.20686L5 11.4939V14.4939Z" fill="#404040"/>
<path d="M16 17.4941H5.158C5.132 17.4941 5.105 17.5041 5.079 17.5041C5.046 17.5041 5.013 17.4951 4.979 17.4941H2V3.49414H8.847L10.847 1.49414H2C0.897 1.49414 0 2.39014 0 3.49414V17.4941C0 18.5981 0.897 19.4941 2 19.4941H16C16.5304 19.4941 17.0391 19.2834 17.4142 18.9084C17.7893 18.5333 18 18.0246 18 17.4941V8.82614L16 10.8261V17.4941Z" fill="#404040"/>
</svg>
