<svg width="130" height="189" viewBox="0 0 130 189" fill="none" xmlns="http://www.w3.org/2000/svg">
<path d="M0.5 94.5C0.5 42.5852 42.5852 0.5 94.5 0.5H129.5V188.5H94.5C42.5852 188.5 0.5 146.415 0.5 94.5Z" fill="white" stroke="#EBEBEB"/>
<circle cx="65" cy="95" r="34.25" fill="white" stroke="#634AF9" stroke-width="1.5"/>
<path d="M67.2469 88.1182C67.2469 86.3823 67.87 84.9135 69.0718 83.6672C70.318 82.421 71.8313 81.7979 73.7452 81.7979C76.1487 81.7979 78.0626 82.8661 79.5759 84.958C81.0892 87.0499 81.8014 89.4089 81.8014 91.9904C81.8014 94.6165 81.0892 97.3761 79.6204 100.314C78.1516 103.251 76.6383 105.477 75.125 106.99C73.6117 108.503 72.6325 109.26 72.1874 109.26C71.9203 109.26 71.2972 108.904 70.407 108.236L70.0064 107.969C69.2943 107.48 68.9382 107.124 68.9382 106.812C68.9382 106.634 69.3388 105.966 70.0955 104.898C72.1874 101.871 73.2111 99.5125 73.2111 97.7766C73.2111 96.4414 72.2319 95.0616 70.229 93.6373C68.2261 92.3465 67.2469 90.4771 67.2469 88.1182ZM48.375 88.1182C48.375 86.3823 48.9981 84.9135 50.2444 83.6672C51.4906 82.421 53.0485 81.7979 54.8733 81.7979C57.2768 81.7979 59.1907 82.8661 60.704 84.958C62.2173 87.0499 62.9295 89.4089 62.9295 91.9904C62.9295 95.7737 61.5497 99.6015 58.8347 103.474C56.1196 107.346 54.2502 109.305 53.271 109.305C53.004 109.305 52.3808 108.948 51.4906 108.281L51.09 108.014C50.3779 107.524 50.0218 107.168 50.0218 106.857C50.0218 106.678 50.4224 106.011 51.1791 104.943C53.271 101.916 54.3392 99.557 54.3392 97.8211C54.3392 96.4859 53.36 95.1061 51.3571 93.6818C49.3987 92.3465 48.375 90.4771 48.375 88.1182Z" fill="#634AF9"/>
</svg>
