<svg width="15" height="16" viewBox="0 0 15 16" fill="none" xmlns="http://www.w3.org/2000/svg">
<path d="M5.625 3.15137V3.33887H8.625V3.15137C8.625 2.75354 8.46696 2.37201 8.18566 2.09071C7.90436 1.8094 7.52282 1.65137 7.125 1.65137C6.72718 1.65137 6.34564 1.8094 6.06434 2.09071C5.78304 2.37201 5.625 2.75354 5.625 3.15137ZM4.6875 3.33887V3.15137C4.6875 2.5049 4.94431 1.88491 5.40143 1.42779C5.85855 0.970674 6.47853 0.713867 7.125 0.713867C7.77147 0.713867 8.39145 0.970674 8.84857 1.42779C9.30569 1.88491 9.5625 2.5049 9.5625 3.15137V3.33887H13.7812C13.9056 3.33887 14.0248 3.38825 14.1127 3.47616C14.2006 3.56407 14.25 3.6833 14.25 3.80762C14.25 3.93194 14.2006 4.05117 14.1127 4.13907C14.0248 4.22698 13.9056 4.27637 13.7812 4.27637H12.6874L11.9374 13.2224C11.8804 13.9017 11.5703 14.5349 11.0684 14.9963C10.5666 15.4578 9.90974 15.7139 9.228 15.7139H5.022C4.34032 15.7138 3.68354 15.4577 3.1818 14.9962C2.68006 14.5348 2.36998 13.9017 2.313 13.2224L1.563 4.27637H0.46875C0.34443 4.27637 0.225201 4.22698 0.137294 4.13907C0.049386 4.05117 0 3.93194 0 3.80762C0 3.6833 0.049386 3.56407 0.137294 3.47616C0.225201 3.38825 0.34443 3.33887 0.46875 3.33887H4.6875ZM3.24713 13.144C3.28445 13.5891 3.48761 14.0038 3.81634 14.3062C4.14507 14.6085 4.57538 14.7763 5.022 14.7764H9.228C9.67469 14.7764 10.1051 14.6087 10.4339 14.3063C10.7627 14.004 10.9659 13.5891 11.0033 13.144L11.7465 4.27637H2.5035L3.24713 13.144ZM6.1875 6.80762C6.1875 6.74606 6.17538 6.68511 6.15182 6.62823C6.12826 6.57136 6.09373 6.51969 6.05021 6.47616C6.00668 6.43263 5.955 6.39811 5.89813 6.37455C5.84126 6.35099 5.78031 6.33887 5.71875 6.33887C5.65719 6.33887 5.59624 6.35099 5.53937 6.37455C5.4825 6.39811 5.43082 6.43263 5.38729 6.47616C5.34377 6.51969 5.30924 6.57136 5.28568 6.62823C5.26212 6.68511 5.25 6.74606 5.25 6.80762V12.2451C5.25 12.3067 5.26212 12.3676 5.28568 12.4245C5.30924 12.4814 5.34377 12.533 5.38729 12.5766C5.43082 12.6201 5.4825 12.6546 5.53937 12.6782C5.59624 12.7017 5.65719 12.7139 5.71875 12.7139C5.78031 12.7139 5.84126 12.7017 5.89813 12.6782C5.955 12.6546 6.00668 12.6201 6.05021 12.5766C6.09373 12.533 6.12826 12.4814 6.15182 12.4245C6.17538 12.3676 6.1875 12.3067 6.1875 12.2451V6.80762ZM8.53125 6.33887C8.79 6.33887 9 6.54887 9 6.80762V12.2451C9 12.3694 8.95061 12.4887 8.86271 12.5766C8.7748 12.6645 8.65557 12.7139 8.53125 12.7139C8.40693 12.7139 8.2877 12.6645 8.19979 12.5766C8.11189 12.4887 8.0625 12.3694 8.0625 12.2451V6.80762C8.0625 6.54887 8.2725 6.33887 8.53125 6.33887Z" fill="#FF3D00"/>
</svg>
