<svg width="17" height="20" viewBox="0 0 17 20" fill="none" xmlns="http://www.w3.org/2000/svg">
<path fill-rule="evenodd" clip-rule="evenodd" d="M2.98779 0C2.45736 0 1.94865 0.210714 1.57358 0.585786C1.19851 0.960859 0.987793 1.46957 0.987793 2V18C0.987793 18.5304 1.19851 19.0391 1.57358 19.4142C1.94865 19.7893 2.45736 20 2.98779 20H14.9878C15.5182 20 16.0269 19.7893 16.402 19.4142C16.7771 19.0391 16.9878 18.5304 16.9878 18V4.414C16.9877 3.88361 16.7769 3.37499 16.4018 3L13.9878 0.586C13.6128 0.210901 13.1042 0.000113275 12.5738 0H2.98779ZM2.98779 2H12.5738L14.9878 4.414V18H2.98779V2ZM13.2258 8.793C13.3213 8.70075 13.3975 8.59041 13.4499 8.4684C13.5023 8.3464 13.5299 8.21518 13.531 8.0824C13.5322 7.94962 13.5069 7.81794 13.4566 7.69505C13.4063 7.57215 13.3321 7.4605 13.2382 7.3666C13.1443 7.27271 13.0326 7.19846 12.9097 7.14818C12.7869 7.0979 12.6552 7.0726 12.5224 7.07375C12.3896 7.0749 12.2584 7.10249 12.1364 7.1549C12.0144 7.20731 11.904 7.28349 11.8118 7.379L7.56979 11.622L6.15479 10.207C5.96619 10.0248 5.71359 9.92405 5.45139 9.92633C5.1892 9.9286 4.93838 10.0338 4.75297 10.2192C4.56757 10.4046 4.4624 10.6554 4.46012 10.9176C4.45784 11.1798 4.55863 11.4324 4.74079 11.621L6.79079 13.672C6.89294 13.7742 7.01423 13.8553 7.14772 13.9106C7.28121 13.9659 7.4243 13.9944 7.56879 13.9944C7.71329 13.9944 7.85637 13.9659 7.98986 13.9106C8.12336 13.8553 8.24464 13.7742 8.34679 13.672L13.2258 8.793Z" fill="white"/>
</svg>
