<svg width="27" height="32" viewBox="0 0 27 32" fill="none" xmlns="http://www.w3.org/2000/svg">
<path fill-rule="evenodd" clip-rule="evenodd" d="M9.97864 0.401589C10.2649 0.0767525 10.7097 -0.0593167 11.1287 0.049719C13.6745 0.712137 17.5866 2.435 20.8827 5.50703C24.2033 8.60189 26.9221 13.0948 26.9221 19.2217C26.9221 21.6472 26.378 24.6152 24.4944 27.0754C22.5797 29.5762 19.4043 31.3921 14.4775 31.6957L14.4644 31.6965C7.89948 32.0258 3.28833 28.6153 1.43597 23.9157C-0.399381 19.2592 0.523078 13.4654 4.66236 9.06915C4.88374 8.83403 5.19392 8.70305 5.51682 8.70834C5.83971 8.71363 6.14544 8.8547 6.35899 9.09695L9.26288 12.3911C10.3259 10.4954 10.8434 8.84288 10.9216 7.18938C11.0012 5.50757 10.6311 3.72937 9.77403 1.58676C9.61322 1.18474 9.69234 0.726425 9.97864 0.401589ZM12.6773 2.98701C13.0906 4.46799 13.2815 5.88346 13.2146 7.29789C13.1142 9.41858 12.439 11.4416 11.2186 13.5963L11.2115 13.6088C11.0308 13.9188 10.7784 14.1809 10.4755 14.3732C10.1726 14.5655 9.82797 14.6825 9.47057 14.7142C9.11316 14.746 8.75336 14.6916 8.42131 14.5556C8.09292 14.4212 7.80113 14.2108 7.56982 13.9418L5.50797 11.6029C2.68035 15.2131 2.19762 19.588 3.57159 23.0739C5.05235 26.8308 8.73844 29.6829 14.3431 29.4041C18.7251 29.1326 21.2315 27.561 22.6717 25.68C24.1436 23.7575 24.6266 21.3482 24.6266 19.2217C24.6266 13.8526 22.2689 9.93699 19.3176 7.18629C17.1679 5.18278 14.7159 3.81265 12.6773 2.98701ZM19.0199 16.5232C19.4682 16.9714 19.4682 17.6981 19.0199 18.1464L11.4814 25.6849C11.0332 26.1331 10.3065 26.1331 9.85824 25.6849C9.41001 25.2366 9.41001 24.5099 9.85824 24.0617L17.3967 16.5232C17.845 16.0749 18.5717 16.0749 19.0199 16.5232Z" fill="#634AF9"/>
<path d="M11.5836 18.4339C11.4314 18.4339 11.2855 18.3734 11.1779 18.2658C11.0702 18.1582 11.0098 18.0122 11.0098 17.86C11.0098 17.7078 11.0702 17.5618 11.1779 17.4542C11.2855 17.3466 11.4314 17.2861 11.5836 17.2861M11.5836 18.4339C11.7358 18.4339 11.8818 18.3734 11.9894 18.2658C12.0971 18.1582 12.1575 18.0122 12.1575 17.86C12.1575 17.7078 12.0971 17.5618 11.9894 17.4542C11.8818 17.3466 11.7358 17.2861 11.5836 17.2861M17.6874 24.9279C17.5352 24.9279 17.3893 24.8675 17.2817 24.7599C17.174 24.6522 17.1136 24.5063 17.1136 24.3541C17.1136 24.2019 17.174 24.0559 17.2817 23.9483C17.3893 23.8406 17.5352 23.7802 17.6874 23.7802M17.6874 24.9279C17.8397 24.9279 17.9856 24.8675 18.0932 24.7599C18.2009 24.6522 18.2613 24.5063 18.2613 24.3541C18.2613 24.2019 18.2009 24.0559 18.0932 23.9483C17.9856 23.8406 17.8397 23.7802 17.6874 23.7802" stroke="#634AF9" stroke-width="1.26823" stroke-linecap="round" stroke-linejoin="round"/>
</svg>
