<svg width="32" height="33" viewBox="0 0 32 33" fill="none" xmlns="http://www.w3.org/2000/svg">
<path fill-rule="evenodd" clip-rule="evenodd" d="M26.1756 3.01378C24.3431 3.01378 22.8575 4.49932 22.8575 6.33182C22.8575 8.16432 24.3431 9.64986 26.1756 9.64986C28.0081 9.64986 29.4936 8.16432 29.4936 6.33182C29.4936 4.49932 28.0081 3.01378 26.1756 3.01378ZM20.6455 6.33182C20.6455 3.27765 23.1214 0.801758 26.1756 0.801758C29.2297 0.801758 31.7056 3.27765 31.7056 6.33182C31.7056 9.38599 29.2297 11.8619 26.1756 11.8619C23.1214 11.8619 20.6455 9.38599 20.6455 6.33182Z" fill="#634AF9"/>
<path fill-rule="evenodd" clip-rule="evenodd" d="M15.7683 0.801758L18.0649 0.801758C18.6757 0.801758 19.1709 1.29694 19.1709 1.90777C19.1709 2.51861 18.6757 3.01378 18.0649 3.01378H15.8528C12.3458 3.01378 9.82667 3.01613 7.9095 3.2738C6.02442 3.52715 4.88759 4.00898 4.04714 4.84866C2.92752 5.96962 2.45092 7.60887 2.29177 10.8108C2.26145 11.4209 1.7423 11.8908 1.13222 11.8605C0.522135 11.8302 0.0521488 11.311 0.082472 10.701C0.244794 7.43518 0.732571 5.03675 2.48248 3.28504C3.8024 1.96602 5.4843 1.36782 7.61486 1.08148C9.69641 0.801724 12.3641 0.801739 15.7683 0.801758ZM30.5997 13.3366C31.2105 13.3366 31.7057 13.8317 31.7057 14.4426V16.7393C31.7057 20.1434 31.7057 22.8115 31.4258 24.8931C31.1393 27.0235 30.5413 28.7048 29.2211 30.0234C27.9019 31.3431 26.221 31.941 24.0908 32.2275C22.0093 32.5075 19.3416 32.5075 15.9375 32.5075H15.7682C12.3641 32.5075 9.69672 32.5075 7.6153 32.2275C5.48468 31.941 3.80364 31.343 2.48315 30.0234C1.16388 28.7041 0.566067 27.0228 0.279725 24.8924C-3.3621e-05 22.8111 -1.8674e-05 20.1433 3.11987e-07 16.7392L6.63579e-07 16.6546C6.63579e-07 16.0438 0.495179 15.5486 1.10601 15.5486C1.71685 15.5486 2.21203 16.0438 2.21203 16.6546C2.21203 20.1617 2.21437 22.6808 2.47204 24.5978C2.7254 26.4828 3.20725 27.6191 4.04675 28.4587C4.88814 29.2995 6.02523 29.7817 7.91017 30.0352C9.82709 30.2931 12.3457 30.2954 15.8528 30.2954C19.36 30.2954 21.879 30.2931 23.7959 30.0352C25.681 29.7817 26.8172 29.2995 27.6569 28.4592C28.4969 27.6204 28.9799 26.4836 29.2335 24.5982C29.4913 22.6811 29.4937 20.1617 29.4937 16.6546V14.4426C29.4937 13.8317 29.9889 13.3366 30.5997 13.3366ZM7.37342 19.604C7.37342 18.9931 7.8686 18.498 8.47943 18.498H21.7516C22.3624 18.498 22.8576 18.9931 22.8576 19.604C22.8576 20.2148 22.3624 20.71 21.7516 20.71H8.47943C7.8686 20.71 7.37342 20.2148 7.37342 19.604ZM7.37342 24.7654C7.37342 24.1545 7.8686 23.6594 8.47943 23.6594H17.3275C17.9384 23.6594 18.4335 24.1545 18.4335 24.7654C18.4335 25.3762 17.9384 25.8714 17.3275 25.8714H8.47943C7.8686 25.8714 7.37342 25.3762 7.37342 24.7654Z" fill="#634AF9"/>
</svg>
