<svg width="31" height="33" viewBox="0 0 31 33" fill="none" xmlns="http://www.w3.org/2000/svg">
<path d="M15.335 30.4418C15.2432 28.7776 16.5668 27.8341 17.6806 27.8472C18.7289 27.8603 19.6593 28.5417 19.9476 29.5507C20.249 30.5728 19.8297 31.6605 18.9255 32.224C18.0344 32.7743 16.8944 32.6826 16.1212 31.9488C15.9116 31.7522 15.7543 31.7129 15.4922 31.8046C14.2998 32.2108 13.1728 32.0143 12.0983 31.3853C8.90087 29.5376 5.71658 27.6899 2.51918 25.8554C1.43154 25.2264 0.697714 24.3353 0.39632 23.1166C0.317695 22.7759 0.278383 22.4221 0.278383 22.0683C0.265279 18.3336 0.265279 14.599 0.278383 10.8512C0.278383 9.18698 1.01221 7.92899 2.45366 7.10343C5.69037 5.22954 8.94018 3.34256 12.19 1.48178C13.5659 0.695533 14.9943 0.656222 16.3702 1.44247C19.6986 3.32945 23.014 5.24265 26.3162 7.18205C27.7314 8.00761 28.3604 9.31802 28.3604 10.9298C28.3604 14.4286 28.3604 17.9274 28.3604 21.4393C28.3604 21.7407 28.4391 21.8848 28.7142 22.0159C29.7102 22.4745 30.2343 23.5884 29.9853 24.6367C29.7364 25.7112 28.7798 26.4713 27.679 26.4844C26.5783 26.4844 25.6086 25.7112 25.3596 24.6105C25.1237 23.5622 25.661 22.4483 26.6569 22.0028C26.9452 21.8717 26.9976 21.7145 26.9976 21.4524C26.9976 17.9798 26.9845 14.4941 26.9976 11.0216C26.9976 9.73735 26.4734 8.82007 25.3596 8.19107C22.2015 6.38271 19.0434 4.56124 15.8984 2.72667C14.8239 2.09767 13.7756 2.09767 12.6879 2.72667C9.51676 4.57434 6.34557 6.39581 3.17439 8.21728C2.12606 8.82006 1.60189 9.69804 1.615 10.9036C1.6281 14.6121 1.615 18.3074 1.615 22.0159C1.615 23.1952 2.12606 24.0732 3.14818 24.6629C6.35868 26.5237 9.58228 28.3714 12.7928 30.2321C13.5921 30.7039 14.4308 30.7563 15.335 30.4418ZM18.6896 30.2059C18.6896 29.6425 18.2441 29.1969 17.6806 29.21C17.1302 29.21 16.6847 29.6687 16.6847 30.219C16.6847 30.7825 17.1302 31.228 17.6937 31.228C18.2441 31.228 18.6896 30.7694 18.6896 30.2059ZM26.6569 24.0994C26.6438 24.6629 27.0893 25.1215 27.6528 25.1215C28.2032 25.1215 28.6487 24.7022 28.6618 24.1518C28.6749 23.5884 28.2425 23.1297 27.679 23.1166C27.1286 23.1035 26.67 23.5491 26.6569 24.0994Z" fill="#634AF9"/>
<path d="M18.4149 11.1001C15.7417 11.1001 13.134 11.1001 10.4608 11.1001C10.9718 11.716 11.4436 12.2795 11.9153 12.843C12.6098 13.6816 13.3043 14.5072 13.9989 15.3459C14.6148 16.0928 14.5885 16.8659 13.9333 17.5604C12.7147 18.8577 11.4829 20.1419 10.2642 21.4393C10.1856 21.5179 10.107 21.6096 10.0021 21.7406C12.8326 21.7406 15.5976 21.7406 18.428 21.7406C18.428 21.2689 18.428 20.8103 18.428 20.3385C18.428 20.1288 18.428 19.9061 18.4543 19.7095C18.5067 19.395 18.795 19.1722 19.1095 19.1722C19.424 19.1722 19.7385 19.4081 19.7385 19.7226C19.7647 20.5482 19.7778 21.3737 19.7253 22.1993C19.686 22.7235 19.175 23.1035 18.6246 23.1166C15.5845 23.1297 12.5443 23.1297 9.49106 23.1166C9.00621 23.1166 8.62619 22.8676 8.44273 22.409C8.23307 21.9241 8.35101 21.4917 8.70482 21.1117C10.0545 19.6833 11.4174 18.255 12.7671 16.8266C13.134 16.4466 13.134 16.4466 12.7933 16.0404C11.6139 14.612 10.4346 13.1968 9.24208 11.7684C8.88827 11.3491 8.75723 10.9036 8.99311 10.4056C9.22898 9.90766 9.64831 9.7373 10.1856 9.7373C12.9505 9.7373 15.7024 9.7373 18.4674 9.7373C19.3322 9.7373 19.7647 10.1828 19.7778 11.0477C19.7778 11.7029 19.7778 12.3712 19.7778 13.0264C19.7778 13.5899 19.5419 13.8913 19.1226 13.8913C18.6901 13.8913 18.4411 13.5768 18.4411 13.0133C18.4149 12.3712 18.4149 11.7553 18.4149 11.1001Z" fill="#634AF9"/>
</svg>
