<svg width="32" height="33" viewBox="0 0 32 33" fill="none" xmlns="http://www.w3.org/2000/svg">
<path d="M13.1995 23.9283C12.6901 23.3739 12.2706 22.8795 11.8961 22.3252C7.88075 16.2872 10.8623 8.15175 17.8291 6.15908C18.0688 6.08417 18.1288 6.03922 18.0239 5.78452C17.4545 4.4361 16.9002 3.08767 16.3458 1.73925C16.2559 1.5295 16.181 1.31975 16.3608 1.10999C16.5256 0.915219 16.7204 0.930201 16.9451 0.960166C18.0688 1.15494 19.2075 1.31974 20.3312 1.54448C20.8855 1.64936 21.4099 1.49953 21.9343 1.40964C22.8333 1.2748 23.7322 1.10999 24.6311 0.960166C25.1855 0.870271 25.4252 1.1849 25.2155 1.69431C24.6611 3.04273 24.1068 4.39115 23.5374 5.73957C23.4475 5.96431 23.4176 6.0542 23.7172 6.12912C27.8674 7.31273 30.9687 10.9535 31.3733 15.2085C31.7179 18.6994 30.5792 21.6959 28.0621 24.153C28.0022 24.2129 27.8823 24.2429 27.9123 24.3328C27.9722 24.4677 28.0921 24.3628 28.182 24.3478C28.8412 24.198 29.4855 24.0332 30.1447 23.8684C30.9238 23.6886 31.628 24.0332 31.8677 24.7224C32.1224 25.4265 31.8077 26.1457 31.0736 26.5053C27.7924 28.0784 24.4963 29.6666 21.2002 31.2397C20.6158 31.5244 20.0165 31.7941 19.4322 32.0787C18.6382 32.4683 17.7991 32.6481 16.9152 32.6481C13.2595 32.6481 9.58875 32.6481 5.93302 32.6481C5.31874 32.6481 5.21387 32.5282 5.21387 31.9139C5.21387 30.2808 5.21387 28.6478 5.21387 27.0147C5.21387 26.4903 5.33373 26.3554 5.8731 26.3554C6.56229 26.3554 7.25148 26.3554 7.94068 26.3554C8.13545 26.3554 8.28528 26.3105 8.45009 26.2056C9.36402 25.6363 10.2929 25.0819 11.2069 24.4976C11.7762 24.153 12.4054 23.9133 13.1995 23.9283ZM11.0271 16.8715C11.102 19.3436 12.1957 21.8008 14.3981 23.7485C14.5479 23.8833 14.6828 23.9283 14.8776 23.9283C16.5706 23.9283 18.2486 23.9283 19.9416 23.9283C21.2151 23.9283 21.8294 24.4976 21.8893 25.7711C21.8893 25.906 21.9193 25.9509 22.0542 25.906C22.3838 25.8161 22.7284 25.7412 23.073 25.6513C23.7472 25.4565 24.4663 25.4265 25.0806 25.0969C28.4367 23.329 30.2496 20.5273 30.4443 16.7517C30.6541 12.8413 28.3618 9.18554 24.8109 7.56743C23.8071 7.10297 22.7583 6.78834 21.6197 6.86326C20.7507 6.9082 19.8817 6.87824 19.0127 6.87824C18.9078 6.87824 18.788 6.87824 18.6831 6.9082C14.2483 7.8521 11.0121 11.8674 11.0271 16.8715ZM11.7912 31.7341C13.4842 31.7341 15.1922 31.7341 16.8852 31.7341C17.6044 31.7341 18.2936 31.5993 18.9378 31.2847C22.8183 29.4268 26.7137 27.554 30.5942 25.6962C30.9238 25.5464 31.0436 25.3067 30.9238 25.067C30.7889 24.7823 30.5492 24.7523 30.2646 24.8272C27.6426 25.4865 25.0207 26.1457 22.3838 26.7899C21.6946 26.9697 21.0054 27.2394 20.2862 27.2844C19.0727 27.3743 17.8591 27.3143 16.6455 27.3143C16.3159 27.3143 16.1361 27.1195 16.1361 26.8499C16.1361 26.5802 16.3309 26.4004 16.6455 26.3854C17.05 26.3704 17.4545 26.3854 17.8591 26.3854C18.6082 26.3854 19.3723 26.4004 20.1214 26.3854C20.7057 26.3704 21.0653 25.906 20.9005 25.3966C20.7807 25.052 20.496 24.8722 20.0165 24.8722C17.7242 24.8722 15.4169 24.8722 13.1246 24.8722C12.6452 24.8722 12.1957 24.992 11.7762 25.2617C11.2518 25.6063 10.6675 25.876 10.1731 26.2655C9.04938 27.1345 7.82082 27.5391 6.41246 27.3293C6.39748 27.3293 6.3825 27.3293 6.3825 27.3293C6.1278 27.2844 6.08285 27.4042 6.09784 27.629C6.11282 28.8875 6.11282 30.146 6.09784 31.4195C6.09784 31.6892 6.15777 31.7491 6.42745 31.7491C8.24033 31.7341 10.0232 31.7341 11.7912 31.7341ZM17.5145 2.0389C17.5145 2.09883 17.4995 2.14378 17.5145 2.17374C18.0089 3.37234 18.5183 4.57094 18.9977 5.78452C19.0577 5.93434 19.1476 5.94932 19.2824 5.93434C20.2563 5.93434 21.2151 5.93434 22.189 5.93434C22.3538 5.93434 22.4437 5.8894 22.5036 5.72459C22.6984 5.21518 22.9082 4.72076 23.1179 4.22634C23.4176 3.50718 23.7172 2.80301 24.0318 2.02392C23.4326 2.12879 22.8932 2.20371 22.3538 2.30859C21.3949 2.50336 20.4361 2.62322 19.4622 2.36852C18.8479 2.20371 18.1737 2.14378 17.5145 2.0389Z" fill="#634AF9"/>
<path d="M3.64074 17.0217C2.62193 17.0217 1.61811 17.0217 0.599299 17.0217C0.194772 17.0217 0 16.8569 0 16.5572C0 16.2576 0.194776 16.0928 0.58432 16.0928C2.6519 16.0928 4.7045 16.0928 6.77208 16.0928C7.23653 16.0928 7.47625 16.4523 7.28147 16.7969C7.16161 17.0067 6.96684 17.0217 6.75709 17.0217C5.70832 17.0217 4.67453 17.0367 3.64074 17.0217Z" fill="#634AF9"/>
<path d="M5.12369 13.9048C4.55435 13.9048 3.97004 13.9048 3.4007 13.9048C3.07109 13.9048 2.86133 13.7101 2.86133 13.4404C2.86133 13.1707 3.07109 12.9759 3.4007 12.9609C4.55435 12.9609 5.72299 12.9609 6.87664 12.9609C7.20625 12.9609 7.40102 13.1557 7.40102 13.4554C7.38604 13.725 7.20625 13.9048 6.87664 13.9048C6.29232 13.9048 5.708 13.9048 5.12369 13.9048Z" fill="#634AF9"/>
<path d="M21.2296 13.4849C21.2296 14.2789 21.2296 15.0281 21.2296 15.7622C21.2296 15.927 21.2745 15.9869 21.4243 16.0469C22.3982 16.4064 22.9825 17.2005 22.9675 18.1444C22.9675 19.1033 22.3832 19.8974 21.3944 20.242C21.2745 20.2869 21.2146 20.3468 21.1696 20.4667C21.0947 20.6764 20.9299 20.7663 20.7202 20.7663C20.5254 20.7663 20.3756 20.6615 20.3156 20.4667C20.2707 20.3318 20.1958 20.2869 20.0609 20.242C19.147 19.9123 18.6376 19.2531 18.5327 18.2942C18.5177 18.2043 18.5177 18.1144 18.5327 18.0245C18.5627 17.7549 18.7874 17.5451 19.0421 17.5901C19.3118 17.62 19.4766 17.7848 19.4766 18.0695C19.4766 18.6388 19.7163 19.0583 20.2857 19.343C20.2857 18.7587 20.2557 18.2043 20.2857 17.65C20.3156 17.1406 20.2557 16.8259 19.6714 16.5712C18.8473 16.2266 18.4878 15.4476 18.5327 14.5486C18.5927 13.6047 19.1021 12.9605 19.971 12.6159C20.1209 12.5559 20.2857 12.526 20.3306 12.3162C20.3756 12.1364 20.5404 12.0615 20.7202 12.0615C20.9149 12.0615 21.0797 12.1364 21.1397 12.3312C21.1846 12.496 21.3045 12.541 21.4393 12.6009C22.3383 12.9155 22.9525 13.7695 22.9376 14.6835C22.9376 15.1329 22.578 15.3876 22.2334 15.1929C22.0536 15.088 22.0086 14.9082 21.9937 14.6984C22.0086 14.1441 21.7689 13.7396 21.2296 13.4849ZM20.2707 13.4998C19.7013 13.7845 19.4017 14.2789 19.4766 14.8183C19.5365 15.2977 19.8662 15.6873 20.2707 15.7772C20.2707 15.0281 20.2707 14.2789 20.2707 13.4998ZM21.2445 16.9908C21.2445 17.7848 21.2445 18.5339 21.2445 19.328C21.7689 19.0733 22.0236 18.6838 22.0236 18.1444C22.0087 17.605 21.7539 17.2305 21.2445 16.9908Z" fill="#634AF9"/>
</svg>
