<svg width="25" height="32" viewBox="0 0 25 32" fill="none" xmlns="http://www.w3.org/2000/svg">
<path d="M4.7679 0.0830078C2.58194 0.0830078 0.804688 1.86026 0.804688 4.04622V27.8255C0.804688 30.0115 2.58194 31.7887 4.7679 31.7887H20.6207C22.8067 31.7887 24.584 30.0115 24.584 27.8255V9.99104H16.6575C15.5615 9.99104 14.6759 9.10551 14.6759 8.00943V0.0830078H4.7679ZM16.6575 0.0830078V8.00943H24.584L16.6575 0.0830078ZM4.7679 5.03702C4.7679 4.49208 5.21376 4.04622 5.7587 4.04622H9.72192C10.2669 4.04622 10.7127 4.49208 10.7127 5.03702C10.7127 5.58196 10.2669 6.02783 9.72192 6.02783H5.7587C5.21376 6.02783 4.7679 5.58196 4.7679 5.03702ZM4.7679 9.00024C4.7679 8.45529 5.21376 8.00943 5.7587 8.00943H9.72192C10.2669 8.00943 10.7127 8.45529 10.7127 9.00024C10.7127 9.54518 10.2669 9.99104 9.72192 9.99104H5.7587C5.21376 9.99104 4.7679 9.54518 4.7679 9.00024ZM12.6943 13.4588C13.2393 13.4588 13.6851 13.9047 13.6851 14.4497V15.521C14.2115 15.5953 14.7193 15.7129 15.1775 15.8368C15.7039 15.9792 16.0197 16.518 15.8773 17.0505C15.7349 17.5831 15.1961 17.8927 14.6635 17.7503C13.9762 17.5645 13.3012 17.4283 12.6757 17.4221C12.1556 17.4159 11.5982 17.5335 11.2143 17.7626C10.8613 17.9732 10.7127 18.2147 10.7127 18.5553C10.7127 18.7844 10.7932 18.9578 11.1648 19.1807C11.5921 19.4346 12.1927 19.6204 12.973 19.8557L13.004 19.8619C13.7037 20.0725 14.5707 20.3325 15.2518 20.766C16.0011 21.2367 16.639 21.9859 16.6575 23.1316C16.6761 24.3267 16.0631 25.1937 15.2394 25.7077C14.7626 26.0049 14.2239 26.1783 13.6851 26.2712V27.3301C13.6851 27.875 13.2393 28.3209 12.6943 28.3209C12.1494 28.3209 11.7035 27.875 11.7035 27.3301V26.2278C11.01 26.0978 10.3597 25.8748 9.79003 25.6767C9.65999 25.6333 9.52995 25.59 9.4061 25.5466C8.88592 25.3733 8.60726 24.8097 8.78065 24.2958C8.95404 23.7818 9.51756 23.4969 10.0315 23.6703C10.1864 23.7199 10.3288 23.7694 10.4712 23.8189C11.3134 24.1038 11.9946 24.3391 12.7191 24.3577C13.2826 24.3763 13.8276 24.2524 14.1867 24.0295C14.5025 23.8313 14.6759 23.5774 14.6697 23.1625C14.6635 22.8777 14.5583 22.6795 14.1929 22.4442C13.7718 22.1779 13.1711 21.9859 12.3971 21.7506L12.298 21.7197C11.6168 21.5153 10.7932 21.2676 10.143 20.8713C9.3999 20.4254 8.7435 19.7009 8.73731 18.5615C8.73111 17.3601 9.4061 16.5303 10.2111 16.0535C10.6756 15.781 11.1895 15.6077 11.7035 15.5148V14.4497C11.7035 13.9047 12.1494 13.4588 12.6943 13.4588Z" fill="#634AF9"/>
</svg>
